<svg xmlns="http://www.w3.org/2000/svg" xmlns:xlink="http://www.w3.org/1999/xlink" width="570" height="466" viewBox="0 0 570 466.011">
    <defs>
        <linearGradient id="linear-gradient" x1="0.5" y1="0.98" x2="0.5" y2="0.034" gradientUnits="objectBoundingBox">
            <stop offset="0" stop-color="#ffffff" />
            <stop offset="1" />
        </linearGradient>
    </defs>
    <g id="Group_146" data-name="Group 146" transform="matrix(1,0,0,1,-26.5,-57.5)">
        <g id="Group_76" data-name="Group 76" transform="translate(29.8,115.5)">
            <g id="Group_75" data-name="Group 75">
                <path id="Path_12" data-name="Path 12" d="M 560.9 393.1 H 110.3 c -4.5 0 -9.2 0.5 -13.7 0 c -31.5 -3.5 -53.1 -38.1 -62.1 -65.6 a 110.4 110.4 0 0 1 -4.8 -21.8 C 27.2 283 31.9 259.5 47.6 242.2 C 61.4 227 84.4 225 96.8 208.8 c 9.2 -11.9 9.8 -28.2 15 -41.9 c 3.4 -8.9 9 -17.3 17 -22.5 c 6.8 -4.4 15 -6.2 23.1 -6.8 a 85.1 85.1 0 0 1 37.7 6 a 104 104 0 0 0 38.6 7.5 c 15.5 0.2 30.2 -2.3 45.2 -6.2 c 14.6 -3.8 30.1 -5.1 43.5 -12.5 c 19 -10.4 32.6 -24.6 55 -27.7 c 23.9 -3.3 50.6 5 66.9 23.2 c 11 12.3 15.7 28.3 12.2 44.5 c -2.1 10 -7.2 21 0.6 29.9 c 5.1 5.9 13.5 7.8 21.2 8.4 c 21 1.6 39.4 5.8 54.5 21.7 c 15 15.7 16.2 30.8 17.2 51.4 a 90 90 0 0 1 -2 21.8 c -0.4 1.8 -0.8 3.6 -1.2 5.4 c -0.3 1.1 -0.5 2.2 -0.8 3.3 c -2.2 9 -6.2 18.3 -6.2 27.6 c -0.1 16.7 15 25.2 21.8 38.7 C 556.8 381.8 560.9 393.1 560.9 393.1 Z" transform="translate(-29.1,-104)" fill="#d9dffb" />
            </g>
        </g>
        <path id="Path_13" data-name="Path 13" d="M 542.6 305.7 H 29.8 C 27.2 283 31.9 259.5 47.6 242.2 C 61.4 227 84.4 225 96.8 208.8 c 9.2 -11.9 9.8 -28.2 15 -41.9 c 3.4 -8.9 9 -17.3 17 -22.5 c 6.8 -4.4 15 -6.2 23.1 -6.8 a 85.1 85.1 0 0 1 37.7 6 a 104 104 0 0 0 38.6 7.5 c 15.5 0.2 30.2 -2.3 45.2 -6.2 c 14.6 -3.8 30.1 -5.1 43.5 -12.5 c 19 -10.4 32.6 -24.6 55 -27.7 c 23.9 -3.3 50.6 5 66.9 23.2 c 11 12.3 15.7 28.3 12.2 44.5 c -2.1 10 -7.2 21 0.6 29.9 c 5.1 5.9 13.5 7.8 21.2 8.4 c 21 1.6 39.4 5.8 54.5 21.7 c 15 15.7 16.2 30.8 17.2 51.4 A 90 90 0 0 1 542.6 305.7 Z" transform="translate(0.6,11.5)" opacity="0.2" fill="url(#linear-gradient)" style="mix-blend-mode: screen; isolation: isolate" />
        <path id="Path_14" data-name="Path 14" d="M 199.3 301.8 V 198.4 H 154.6 l -58.6 83.8 L 80.7 304.2 v 32.3 h 78.6 v 30.4 H 199.3 V 336.5 h 19.2 V 301.8 Z m -37.2 0 H 122.8 l 13 -19.6 l 26.3 -39.8 Z" transform="translate(13.4,34.9)" fill="#0f857d" />
        <path id="Path_15" data-name="Path 15" d="M 214.2 328.7 v 11.4 H 112.5 a 9.6 9.6 0 0 1 7.5 -7.8 c 4.9 -0.9 8.4 2.7 8.7 3 c 0.2 -0.8 2.4 -7.7 9.3 -10.2 a 14.7 14.7 0 0 1 9.6 0 a 6.8 6.8 0 0 1 8.4 -9 a 13.5 13.5 0 0 1 24.5 4.2 a 6.8 6.8 0 0 1 12.3 1.8 a 12.5 12.5 0 0 1 21.4 6.5 Z" transform="translate(21.3,62.6)" fill="#99a6d6" />
        <path id="Path_16" data-name="Path 16" d="M 266.2 158.3 c -48.7 0 -65.7 36.5 -65.7 86.5 c 0 17.9 2.1 34 7.1 47.4 c 9 24.4 27.2 39.7 58.7 39.7 c 31.4 0 49.7 -15.2 58.7 -39.7 c 4.9 -13.4 7.1 -29.5 7.1 -47.4 C 331.9 194.8 314.8 158.3 266.2 158.3 Z m 0 136.1 a 25.7 25.7 0 0 1 -11.2 -2.2 c -13.4 -6.3 -15.3 -25.3 -15.3 -47.4 c 0 -26.2 2.8 -49.1 26.4 -49.1 c 23.6 0 26.4 22.9 26.4 49.1 c 0 22.1 -1.9 41.1 -15.3 47.4 A 25.8 25.8 0 0 1 266.2 294.4 Z" transform="translate(43.2,25)" fill="#0f857d" />
        <g id="Group_78" data-name="Group 78" transform="translate(394.4,377.4)">
            <g id="Group_77" data-name="Group 77">
                <path id="Path_17" data-name="Path 17" d="M 406.7 329.6 v 9.6 H 321.3 a 8.1 8.1 0 0 1 6.3 -6.5 c 4.1 -0.8 7.1 2.3 7.3 2.5 c 0.2 -0.6 2 -6.5 7.8 -8.5 a 12.4 12.4 0 0 1 8 0 a 5.7 5.7 0 0 1 7 -7.5 a 11.4 11.4 0 0 1 20.6 3.5 a 5.7 5.7 0 0 1 10.3 1.5 a 10.5 10.5 0 0 1 18 5.5 Z" transform="translate(-321.3,-313.8)" fill="#99a6d6" />
                <path id="Path_18" data-name="Path 18" d="M 388.2 337.6 h 31.6 a 6.8 6.8 0 0 0 -11 -6.5 a 3.5 3.5 0 0 0 -5.8 -3.9 a 9.2 9.2 0 0 0 -6.3 -6.8 c -4.1 -1.1 -8.8 1.2 -10.8 5.6 Q 387 331.8 388.2 337.6 Z" transform="translate(-305.3,-312.3)" fill="#0f857d" />
            </g>
        </g>
        <path id="Path_19" data-name="Path 19" d="M 435.6 301.8 V 198.4 H 391 l -58.6 83.8 l -15.3 21.9 v 32.3 h 78.6 v 30.4 h 40 V 336.5 h 19.2 V 301.8 Z m -37.2 0 h -39.3 L 372.1 282.2 l 26.3 -39.8 Z" transform="translate(72.1,34.9)" fill="#0f857d" />
        <path id="Path_20" data-name="Path 20" d="M 151.5 198.4 h 44.7 v 83.8 H 93 Z" transform="translate(16.5,34.9)" opacity="0.2" fill="url(#linear-gradient)" style="mix-blend-mode: screen; isolation: isolate" />
        <path id="Path_21" data-name="Path 21" d="M 331.9 244.8 c 0 17.9 -2.1 34 -7.1 47.4 H 207.5 c -4.9 -13.4 -7.1 -29.5 -7.1 -47.4 c 0 -50 17.1 -86.5 65.7 -86.5 C 314.8 158.3 331.9 194.8 331.9 244.8 Z" transform="translate(43.2,25)" opacity="0.2" fill="url(#linear-gradient)" style="mix-blend-mode: screen; isolation: isolate" />
        <path id="Path_22" data-name="Path 22" d="M 432.6 198.4 v 83.8 H 329.3 l 58.6 -83.8 Z" transform="translate(75.1,34.9)" opacity="0.2" fill="url(#linear-gradient)" style="mix-blend-mode: screen; isolation: isolate" />
        <g id="Group_81" data-name="Group 81" transform="translate(471.5,384.4)">
            <g id="Group_80" data-name="Group 80">
                <path id="Path_23" data-name="Path 23" d="M 444.9 330.8 v 6.9 H 383 a 5.8 5.8 0 0 1 4.6 -4.7 a 6.2 6.2 0 0 1 5.3 1.8 a 9.6 9.6 0 0 1 5.6 -6.2 a 9 9 0 0 1 5.8 0 a 4.2 4.2 0 0 1 5.1 -5.5 a 8.2 8.2 0 0 1 14.9 2.5 a 4.1 4.1 0 0 1 7.5 1.1 a 7.6 7.6 0 0 1 13 4 Z" transform="translate(-383,-319.4)" fill="#99a6d6" />
                <g id="Group_79" data-name="Group 79" transform="translate(58.3,5.7)">
                    <path id="Path_24" data-name="Path 24" d="M 431.5 336.6 h 22.9 a 4.9 4.9 0 0 0 -8 -4.7 a 2.6 2.6 0 0 0 -4.2 -2.8 a 6.7 6.7 0 0 0 -4.6 -4.9 a 6.9 6.9 0 0 0 -7.8 4.1 Q 430.6 332.5 431.5 336.6 Z" transform="translate(-429.7,-324)" fill="#bdc9f4" />
                </g>
            </g>
        </g>
        <g id="Group_82" data-name="Group 82" transform="translate(307.8,356.8)">
            <rect id="Rectangle_15" data-name="Rectangle 15" width="3.2" height="44.8" fill="#010038" />
        </g>
        <g id="Group_83" data-name="Group 83" transform="translate(243.4,374.8)">
            <path id="Path_25" data-name="Path 25" d="M 297.4 329.7 v 10.9 h -97.2 a 9.2 9.2 0 0 1 7.2 -7.4 c 4.7 -0.9 8.1 2.6 8.3 2.9 c 0.2 -0.7 2.3 -7.4 8.9 -9.7 a 14.1 14.1 0 0 1 9.2 0 a 6.5 6.5 0 0 1 8 -8.6 a 12.9 12.9 0 0 1 23.5 4 a 6.5 6.5 0 0 1 11.7 1.7 a 12 12 0 0 1 20.5 6.3 Z" transform="translate(-200.2,-311.8)" fill="#99a6d6" />
            <path id="Path_26" data-name="Path 26" d="M 276.4 338.8 h 35.9 a 7.7 7.7 0 0 0 -12.5 -7.4 a 4 4 0 0 0 -6.6 -4.4 a 10.5 10.5 0 0 0 -7.2 -7.7 c -4.7 -1.3 -10 1.3 -12.3 6.4 Q 275 332.3 276.4 338.8 Z" transform="translate(-182,-310)" fill="#bdc9f4" />
        </g>
        <path id="Path_64" data-name="Path 64" d="M 38.7 336.9 c 14.1 0 17.4 19.2 22.3 29 c 7 14 19.6 25.1 35.8 26.2 c 10.4 0.7 20.7 -2.7 31.2 -2.6 c 52.4 0.5 77.2 65.6 129.6 64.9 c 32.2 -0.4 60 -19.2 87.6 -34 c 14.2 -7.6 28.9 -14.6 44.8 -17.7 c 20.1 -4 40.1 -0.4 60.1 2.1 c 4.7 0.6 9.3 1.1 14 1.5 c 40.9 3.3 102.9 -16.2 107.2 -64.6 q 0.1 -1.4 0.2 -2.8 q 0 -1.3 0 -2.7 Z" transform="translate(3,69.1)" fill="#0a6373" />
        <path id="Path_65" data-name="Path 65" d="M 594.1 334.1 H 28.9 a 2.4 2.4 0 0 0 0 4.8 H 594.1 a 2.4 2.4 0 1 0 0 -4.8 Z" transform="translate(0,68.6)" fill="#0a6373" />
        <g id="Group_115" data-name="Group 115" transform="translate(82.4,324.6)">
            <g id="Group_110" data-name="Group 110">
                <path id="Path_93" data-name="Path 93" d="M 71.3 293.2 c 7.1 0.4 9.5 7.4 10 9.6 l 7.8 7.8 V 285.5 c -5.6 -5.6 -1.2 -14 -1.2 -14 c 7.1 5.1 3.3 11.9 2 13.8 v 10.1 l 7 -7 c 0.6 -7.9 9.8 -10 9.8 -10 c 0.8 8.7 -6.9 10.2 -9.2 10.5 L 90 296.6 l -0.1 -0.1 V 335.5 h -0.8 V 311.6 l -0.1 0.1 l -8.2 -8.2 C 71.2 303.6 71.3 293.2 71.3 293.2 Z" transform="translate(-71.3,-271.6)" fill="#ff502f" />
                <path id="Rectangle_17" data-name="Rectangle 17" d="M 3.3 0 h 10 a 3.3 3.3 0 0 1 3.3 3.3 V 16.7 a 0 0 0 0 1 0 0 H 0 a 0 0 0 0 1 0 0 V 3.3 A 3.3 3.3 0 0 1 3.3 0 Z" transform="translate(26.8,78.4) rotate(180)" fill="#0a6373" />
            </g>
            <g id="Group_114" data-name="Group 114" transform="translate(17.3,30.5)">
                <g id="Group_113" data-name="Group 113">
                    <g id="Group_112" data-name="Group 112">
                        <g id="Group_111" data-name="Group 111">
                            <path id="Path_94" data-name="Path 94" d="M 108.1 314.3 l -4.1 3.8 V 314 c 3.1 -1.6 10 -7 6.4 -18 c 0 0 -12.5 4.8 -8 18 v 5.8 L 98.9 316 c -0.5 -3 -3.3 -10.5 -13.7 -10.2 c 0 0 0.8 11.5 12.7 11.5 l 4.5 5 v 7.7 h 1.6 v -9.7 l 5.2 -4.7 c 10.5 0.7 12.1 -9.4 12.1 -9.4 C 111.8 305.1 108.8 311.6 108.1 314.3 Z" transform="translate(-85.2,-296)" fill="#49beb7" />
                        </g>
                    </g>
                </g>
                <path id="Path_95" data-name="Path 95" d="M 109.6 338 H 94.1 l -3.2 -17.8 h 21.8 Z" transform="translate(-83.8,-290)" fill="#1b2c56" />
            </g>
        </g>
        <g id="Group_121" data-name="Group 121" transform="translate(566.1,325.8)">
            <g id="Group_120" data-name="Group 120">
                <g id="Group_119" data-name="Group 119">
                    <g id="Group_116" data-name="Group 116" transform="translate(10)">
                        <path id="Path_96" data-name="Path 96" d="M 473.1 284.7 a 71.5 71.5 0 0 1 -1.8 -11.5 l 0 -0.7 l -0.5 0.5 a 8.1 8.1 0 0 0 -2.1 5.2 c 0 0.8 0.1 1.6 0.1 2.3 a 10 10 0 0 1 -0.6 5.4 c -1.3 2.9 -2.1 5.4 -0.4 9.4 l 0.5 1.1 c 1.3 3 1.8 4.2 1.3 6.5 a 8 8 0 0 0 4.5 8.2 c -0.1 5.4 -0.3 9.8 -0.3 9.9 l 0.6 0 c 0 -0.2 0.7 -20.4 0.3 -26.7 A 71.3 71.3 0 0 0 473.1 284.7 Z" transform="translate(-466.9,-272.5)" fill="#ff502f" />
                    </g>
                    <g id="Group_117" data-name="Group 117" transform="translate(0,13.5)">
                        <path id="Path_97" data-name="Path 97" d="M 459.7 283.6 l -0.3 -0.2 l -0.1 0.3 a 6 6 0 0 0 0.7 5.8 a 7.6 7.6 0 0 1 1.3 4 a 11.2 11.2 0 0 0 1.9 5.7 a 13.2 13.2 0 0 0 3.4 3.1 c 1.3 0.9 2.2 1.5 2.4 3.1 c 0 0.3 0.1 0.5 0.1 0.8 c 0.3 2.5 0.5 3.9 4.1 5.1 c 1.1 4.1 1.5 6.9 1.6 7 l 0.6 -0.1 C 475.3 318 470.9 292.4 459.7 283.6 Z" transform="translate(-458.8,-283.4)" fill="#ff502f" />
                    </g>
                    <g id="Group_118" data-name="Group 118" transform="translate(18.1,20.5)">
                        <path id="Path_98" data-name="Path 98" d="M 481 289.3 l -0.1 -0.4 l -0.3 0.2 c -8.6 5.5 -7.2 26.6 -7.2 27.5 l 0.3 0 h 0 l 0.3 0 c 0 -0.1 -0.1 -2 -0.1 -4.8 c 0.3 -0.4 1.3 -2 2.1 -3.3 a 2.9 2.9 0 0 0 0.2 -2.4 a 5.9 5.9 0 0 1 -0.1 -2.6 a 4.7 4.7 0 0 1 1.2 -2.4 a 7.6 7.6 0 0 0 1.3 -2.1 a 6.8 6.8 0 0 0 0.4 -2.9 a 3.7 3.7 0 0 1 0.7 -2.8 A 4.9 4.9 0 0 0 481 289.3 Z" transform="translate(-473.3,-288.9)" fill="#ff502f" />
                    </g>
                </g>
            </g>
            <path id="Path_99" data-name="Path 99" d="M 479.4 339.9 h -10 l -2.8 -29.3 h 15.5 Z" transform="translate(-456.9,-263)" fill="#1b2c56" />
        </g>
        <g id="Group_127" data-name="Group 127" transform="translate(57.2,57.7)">
            <path id="Path_100" data-name="Path 100" d="M 368.5 89.9 a 11.2 11.2 0 0 0 -1.4 -4.8 l 1.4 -0.8 a 12.9 12.9 0 0 0 -2.7 -3.3 l -1.1 1.2 a 11.2 11.2 0 0 0 -4.4 -2.4 l 0.4 -1.5 l 0 0 a 12.8 12.8 0 0 0 -3.5 -0.5 c -0.3 0 -0.5 0 -0.8 0 l 0.1 1.6 a 11.2 11.2 0 0 0 -4.8 1.4 l -0.8 -1.4 a 12.8 12.8 0 0 0 -3.3 2.7 l 1.2 1.1 a 11.2 11.2 0 0 0 -2.4 4.4 l -1.5 -0.4 l 0 0 a 12.8 12.8 0 0 0 -0.5 3.5 q 0 0.4 0 0.7 l 1.6 -0.1 a 11.2 11.2 0 0 0 1.4 4.8 l -1.4 0.8 a 12.9 12.9 0 0 0 2.7 3.4 l 1.1 -1.2 a 11.2 11.2 0 0 0 4.4 2.4 l -0.4 1.5 l 0 0 a 12.8 12.8 0 0 0 3.5 0.5 q 0.4 0 0.8 0 l -0.1 -1.6 a 11.2 11.2 0 0 0 4.8 -1.4 l 0.8 1.4 a 12.8 12.8 0 0 0 3.3 -2.7 l -1.2 -1.1 a 11.2 11.2 0 0 0 2.4 -4.4 l 1.5 0.4 l 0 0 a 12.8 12.8 0 0 0 0.5 -3.5 c 0 -0.3 0 -0.5 0 -0.8 Z m -14 10.5 h 0 l 0.1 -0.3 Z m 9.3 -8 a 6.8 6.8 0 1 1 0.3 -1.9 A 6.8 6.8 0 0 1 363.8 92.4 Z" transform="translate(21.7,-52.8)" fill="none" stroke="#99a6d6" stroke-miterlimit="10" stroke-width="0.541" />
            <path id="Path_101" data-name="Path 101" d="M 338.5 173.9 a 11.2 11.2 0 0 0 -1.4 -4.8 l 1.4 -0.8 a 12.9 12.9 0 0 0 -2.7 -3.3 l -1.1 1.2 a 11.2 11.2 0 0 0 -4.4 -2.4 l 0.4 -1.5 l 0 0 a 12.8 12.8 0 0 0 -3.5 -0.5 c -0.3 0 -0.5 0 -0.8 0 l 0.1 1.6 a 11.2 11.2 0 0 0 -4.8 1.4 l -0.8 -1.4 a 12.8 12.8 0 0 0 -3.3 2.7 l 1.2 1.1 a 11.2 11.2 0 0 0 -2.4 4.4 l -1.5 -0.4 l 0 0 a 12.8 12.8 0 0 0 -0.5 3.5 q 0 0.4 0 0.7 l 1.6 -0.1 a 11.2 11.2 0 0 0 1.4 4.8 l -1.4 0.8 a 12.9 12.9 0 0 0 2.7 3.4 l 1.1 -1.2 a 11.2 11.2 0 0 0 4.4 2.4 l -0.4 1.5 l 0 0 a 12.8 12.8 0 0 0 3.5 0.5 q 0.4 0 0.8 0 l -0.1 -1.6 a 11.2 11.2 0 0 0 4.8 -1.4 l 0.8 1.4 a 12.8 12.8 0 0 0 3.3 -2.7 l -1.2 -1.1 a 11.2 11.2 0 0 0 2.4 -4.4 l 1.5 0.4 l 0 0 a 12.8 12.8 0 0 0 0.5 -3.5 c 0 -0.3 0 -0.5 0 -0.8 Z m -14 10.5 h 0 l 0.1 -0.3 Z m 9.3 -8 a 6.8 6.8 0 1 1 0.3 -1.9 A 6.8 6.8 0 0 1 333.8 176.4 Z" transform="translate(14.2,-31.9)" fill="none" stroke="#99a6d6" stroke-miterlimit="10" stroke-width="0.541" />
            <path id="Path_102" data-name="Path 102" d="M 120.3 107.3 a 6.7 6.7 0 0 0 -0.8 -2.9 l 0.8 -0.5 a 7.7 7.7 0 0 0 -1.6 -2 l -0.6 0.7 a 6.7 6.7 0 0 0 -2.6 -1.4 l 0.3 -0.9 l 0 0 a 7.6 7.6 0 0 0 -2.1 -0.3 c -0.1 0 -0.3 0 -0.4 0 l 0.1 0.9 a 6.7 6.7 0 0 0 -2.9 0.8 l -0.5 -0.8 a 7.6 7.6 0 0 0 -2 1.6 l 0.7 0.6 a 6.7 6.7 0 0 0 -1.4 2.6 l -0.9 -0.3 l 0 0 a 7.6 7.6 0 0 0 -0.3 2.1 c 0 0.1 0 0.3 0 0.4 l 0.9 -0.1 a 6.7 6.7 0 0 0 0.8 2.9 l -0.8 0.5 a 7.7 7.7 0 0 0 1.6 2 l 0.6 -0.7 a 6.7 6.7 0 0 0 2.6 1.4 l -0.3 0.9 l 0 0 a 7.7 7.7 0 0 0 2.1 0.3 c 0.2 0 0.3 0 0.5 0 l -0.1 -0.9 a 6.7 6.7 0 0 0 2.9 -0.8 l 0.5 0.8 a 7.6 7.6 0 0 0 2 -1.6 l -0.7 -0.6 a 6.7 6.7 0 0 0 1.4 -2.6 l 0.9 0.3 v 0 a 7.6 7.6 0 0 0 0.3 -2.1 c 0 -0.2 0 -0.3 0 -0.5 Z m -8.3 6.3 h 0 l 0 -0.2 Z m 5.6 -4.8 a 4 4 0 1 1 0.2 -1.1 A 4 4 0 0 1 117.5 108.8 Z" transform="translate(-37.5,-47.2)" fill="none" stroke="#99a6d6" stroke-miterlimit="10" stroke-width="0.322" />
            <path id="Path_103" data-name="Path 103" d="M 75.2 180.4 a 11.2 11.2 0 0 0 -1.4 -4.8 l 1.4 -0.8 a 12.9 12.9 0 0 0 -2.7 -3.3 L 71.4 172.7 a 11.2 11.2 0 0 0 -4.4 -2.4 l 0.4 -1.5 l 0 0 a 12.8 12.8 0 0 0 -3.5 -0.5 q -0.4 0 -0.8 0 l 0.1 1.6 a 11.2 11.2 0 0 0 -4.8 1.4 l -0.8 -1.4 a 12.9 12.9 0 0 0 -3.3 2.7 l 1.2 1.1 a 11.2 11.2 0 0 0 -2.4 4.4 l -1.5 -0.4 l 0 0 a 12.8 12.8 0 0 0 -0.5 3.5 c 0 0.2 0 0.5 0 0.7 l 1.6 -0.1 a 11.2 11.2 0 0 0 1.4 4.8 l -1.4 0.8 a 12.8 12.8 0 0 0 2.7 3.4 l 1.1 -1.2 a 11.2 11.2 0 0 0 4.4 2.4 l -0.4 1.5 l 0 0 a 12.8 12.8 0 0 0 3.5 0.5 c 0.3 0 0.5 0 0.8 0 l -0.1 -1.6 a 11.2 11.2 0 0 0 4.8 -1.4 l 0.8 1.4 a 12.8 12.8 0 0 0 3.3 -2.7 L 72.4 188.5 a 11.2 11.2 0 0 0 2.4 -4.4 l 1.5 0.4 l 0 0 a 12.8 12.8 0 0 0 0.5 -3.5 c 0 -0.3 0 -0.5 0 -0.8 Z M 61.2 190.9 h 0 l 0.1 -0.3 Z m 9.3 -8 a 6.8 6.8 0 1 1 0.3 -1.9 A 6.8 6.8 0 0 1 70.5 182.9 Z" transform="translate(-51.1,-30.3)" fill="none" stroke="#99a6d6" stroke-miterlimit="10" stroke-width="0.541" />
            <path id="Path_104" data-name="Path 104" d="M 296.6 88.6 a 5.7 5.7 0 0 0 -0.7 -2.5 l 0.7 -0.4 a 6.6 6.6 0 0 0 -1.4 -1.7 l -0.5 0.6 a 5.7 5.7 0 0 0 -2.2 -1.2 l 0.2 -0.8 l 0 0 a 6.6 6.6 0 0 0 -1.8 -0.3 c -0.1 0 -0.3 0 -0.4 0 l 0 0.8 a 5.8 5.8 0 0 0 -2.5 0.7 l -0.4 -0.7 a 6.6 6.6 0 0 0 -1.7 1.4 l 0.6 0.5 a 5.8 5.8 0 0 0 -1.2 2.2 l -0.8 -0.2 l 0 0 a 6.6 6.6 0 0 0 -0.3 1.8 c 0 0.1 0 0.3 0 0.4 l 0.8 0 a 5.8 5.8 0 0 0 0.7 2.5 l -0.7 0.4 a 6.6 6.6 0 0 0 1.4 1.7 l 0.5 -0.6 a 5.7 5.7 0 0 0 2.2 1.2 l -0.2 0.8 l 0 0 a 6.6 6.6 0 0 0 1.8 0.3 c 0.1 0 0.3 0 0.4 0 l -0.1 -0.8 a 5.8 5.8 0 0 0 2.5 -0.7 l 0.4 0.7 a 6.6 6.6 0 0 0 1.7 -1.4 l -0.6 -0.5 a 5.7 5.7 0 0 0 1.2 -2.3 l 0.8 0.2 V 90.7 a 6.5 6.5 0 0 0 0.3 -1.8 c 0 -0.1 0 -0.3 0 -0.4 Z m -7.2 5.4 h 0 l 0 -0.1 Z m 4.8 -4.1 a 3.5 3.5 0 0 1 -3.4 2.5 a 3.5 3.5 0 0 1 -1 -0.1 a 3.5 3.5 0 1 1 4.3 -2.4 Z" transform="translate(6.7,-51.6)" fill="none" stroke="#99a6d6" stroke-miterlimit="10" stroke-width="0.541" />
            <path id="Path_105" data-name="Path 105" d="M 171.3 99.8 a 5.8 5.8 0 0 0 -0.7 -2.5 l 0.7 -0.4 a 6.6 6.6 0 0 0 -1.4 -1.7 l -0.5 0.6 a 5.7 5.7 0 0 0 -2.2 -1.2 l 0.2 -0.8 l 0 0 a 6.6 6.6 0 0 0 -1.8 -0.3 c -0.1 0 -0.3 0 -0.4 0 l 0 0.8 a 5.8 5.8 0 0 0 -2.5 0.7 l -0.4 -0.7 a 6.6 6.6 0 0 0 -1.7 1.4 l 0.6 0.5 a 5.7 5.7 0 0 0 -1.2 2.2 l -0.8 -0.2 l 0 0 a 6.6 6.6 0 0 0 -0.3 1.8 c 0 0.1 0 0.3 0 0.4 l 0.8 0 a 5.8 5.8 0 0 0 0.7 2.5 l -0.7 0.4 a 6.6 6.6 0 0 0 1.4 1.7 l 0.5 -0.6 a 5.8 5.8 0 0 0 2.2 1.2 l -0.2 0.8 l 0 0 a 6.6 6.6 0 0 0 1.8 0.3 q 0.2 0 0.4 0 l -0.1 -0.8 a 5.8 5.8 0 0 0 2.5 -0.7 l 0.4 0.7 a 6.6 6.6 0 0 0 1.7 -1.4 l -0.6 -0.5 a 5.7 5.7 0 0 0 1.2 -2.2 l 0.8 0.2 v 0 a 6.6 6.6 0 0 0 0.3 -1.8 c 0 -0.1 0 -0.3 0 -0.4 Z m -7.2 5.4 h 0 l 0 -0.1 Z m 4.8 -4.1 a 3.5 3.5 0 0 1 -6.8 -0.9 a 3.5 3.5 0 0 1 0.1 -1 a 3.5 3.5 0 1 1 6.7 1.9 Z" transform="translate(-24.4,-48.8)" fill="none" stroke="#99a6d6" stroke-miterlimit="10" stroke-width="0.541" />
            <path id="Path_106" data-name="Path 106" d="M 188.7 170.9 a 5.8 5.8 0 0 0 -0.7 -2.5 l 0.7 -0.4 a 6.6 6.6 0 0 0 -1.4 -1.7 l -0.5 0.6 a 5.7 5.7 0 0 0 -2.2 -1.2 l 0.2 -0.8 l 0 0 a 6.6 6.6 0 0 0 -1.8 -0.3 c -0.1 0 -0.3 0 -0.4 0 l 0 0.8 a 5.8 5.8 0 0 0 -2.5 0.7 l -0.4 -0.7 a 6.6 6.6 0 0 0 -1.7 1.4 l 0.6 0.5 a 5.7 5.7 0 0 0 -1.2 2.2 l -0.8 -0.2 l 0 0 a 6.6 6.6 0 0 0 -0.3 1.8 c 0 0.1 0 0.3 0 0.4 l 0.8 0 a 5.8 5.8 0 0 0 0.7 2.5 l -0.7 0.4 a 6.6 6.6 0 0 0 1.4 1.7 l 0.5 -0.6 a 5.7 5.7 0 0 0 2.2 1.2 l -0.2 0.8 l 0 0 a 6.6 6.6 0 0 0 1.8 0.3 c 0.1 0 0.3 0 0.4 0 l -0.1 -0.8 a 5.8 5.8 0 0 0 2.5 -0.7 l 0.4 0.7 a 6.6 6.6 0 0 0 1.7 -1.4 l -0.6 -0.5 a 5.8 5.8 0 0 0 1.2 -2.3 l 0.8 0.2 v 0 a 6.6 6.6 0 0 0 0.3 -1.8 c 0 -0.1 0 -0.3 0 -0.4 Z m -7.2 5.4 h 0 l 0 -0.1 Z m 4.8 -4.1 a 3.5 3.5 0 1 1 0.1 -1 A 3.5 3.5 0 0 1 186.3 172.2 Z" transform="translate(-20.1,-31.2)" fill="none" stroke="#99a6d6" stroke-miterlimit="10" stroke-width="0.541" />
            <path id="Path_107" data-name="Path 107" d="M 399.4 161.6 a 4.7 4.7 0 0 0 -0.6 -2 l 0.6 -0.3 a 5.4 5.4 0 0 0 -1.1 -1.4 l -0.4 0.5 A 4.7 4.7 0 0 0 396 157.3 l 0.2 -0.6 l 0 0 a 5.4 5.4 0 0 0 -1.5 -0.2 c -0.1 0 -0.2 0 -0.3 0 l 0 0.7 a 4.8 4.8 0 0 0 -2 0.6 l -0.3 -0.6 a 5.4 5.4 0 0 0 -1.4 1.1 l 0.5 0.4 a 4.7 4.7 0 0 0 -1 1.8 l -0.6 -0.2 l 0 0 a 5.4 5.4 0 0 0 -0.2 1.5 c 0 0.1 0 0.2 0 0.3 l 0.7 0 a 4.7 4.7 0 0 0 0.6 2 l -0.6 0.3 a 5.4 5.4 0 0 0 1.1 1.4 l 0.4 -0.5 a 4.7 4.7 0 0 0 1.8 1 l -0.2 0.6 l 0 0 a 5.4 5.4 0 0 0 1.5 0.2 c 0.1 0 0.2 0 0.3 0 l 0 -0.7 a 4.7 4.7 0 0 0 2 -0.6 l 0.3 0.6 a 5.4 5.4 0 0 0 1.4 -1.1 l -0.5 -0.4 a 4.7 4.7 0 0 0 1 -1.9 l 0.6 0.2 v 0 a 5.4 5.4 0 0 0 0.2 -1.5 c 0 -0.1 0 -0.2 0 -0.3 Z m -5.9 4.4 h 0 l 0 -0.1 Z m 3.9 -3.4 a 2.9 2.9 0 0 1 -2.8 2.1 a 2.9 2.9 0 0 1 -0.8 -0.1 a 2.9 2.9 0 0 1 0.8 -5.6 a 2.8 2.8 0 0 1 0.8 0.1 a 2.9 2.9 0 0 1 2 3.5 Z" transform="translate(32.8,-33.2)" fill="none" stroke="#99a6d6" stroke-miterlimit="10" stroke-width="0.541" />
            <path id="Path_108" data-name="Path 108" d="M 477.1 196.9 a 4.7 4.7 0 0 0 -0.6 -2 l 0.6 -0.3 a 5.4 5.4 0 0 0 -1.1 -1.4 l -0.4 0.5 a 4.7 4.7 0 0 0 -1.8 -1 l 0.2 -0.6 l 0 0 a 5.4 5.4 0 0 0 -1.5 -0.2 c -0.1 0 -0.2 0 -0.3 0 l 0 0.7 a 4.7 4.7 0 0 0 -2 0.6 l -0.3 -0.6 a 5.4 5.4 0 0 0 -1.4 1.1 l 0.5 0.4 a 4.7 4.7 0 0 0 -1 1.8 l -0.6 -0.2 l 0 0 a 5.4 5.4 0 0 0 -0.2 1.5 c 0 0.1 0 0.2 0 0.3 l 0.7 0 a 4.7 4.7 0 0 0 0.6 2 l -0.6 0.3 a 5.4 5.4 0 0 0 1.1 1.4 l 0.4 -0.5 a 4.7 4.7 0 0 0 1.8 1 l -0.2 0.6 l 0 0 a 5.4 5.4 0 0 0 1.5 0.2 c 0.1 0 0.2 0 0.3 0 l 0 -0.7 a 4.7 4.7 0 0 0 2 -0.6 l 0.3 0.6 a 5.4 5.4 0 0 0 1.4 -1.1 l -0.5 -0.4 a 4.7 4.7 0 0 0 1 -1.9 l 0.6 0.2 v 0 a 5.4 5.4 0 0 0 0.2 -1.5 c 0 -0.1 0 -0.2 0 -0.3 Z m -5.9 4.4 h 0 l 0 -0.1 Z m 3.9 -3.4 a 2.9 2.9 0 0 1 -2.8 2.1 a 2.8 2.8 0 0 1 -0.8 -0.1 a 2.9 2.9 0 1 1 3.5 -2 Z" transform="translate(52.1,-24.5)" fill="none" stroke="#99a6d6" stroke-miterlimit="10" stroke-width="0.541" />
            <path id="Path_109" data-name="Path 109" d="M 368.2 213.5 a 7 7 0 0 0 -0.9 -3 l 0.9 -0.5 a 8.1 8.1 0 0 0 -1.7 -2.1 l -0.7 0.7 a 7 7 0 0 0 -2.7 -1.5 l 0.3 -1 l 0 0 a 8 8 0 0 0 -2.2 -0.3 c -0.2 0 -0.3 0 -0.5 0 l 0.1 1 a 7 7 0 0 0 -3 0.9 l -0.5 -0.9 a 8.1 8.1 0 0 0 -2.1 1.7 l 0.7 0.7 a 7 7 0 0 0 -1.5 2.7 l -1 -0.3 l 0 0 a 8 8 0 0 0 -0.3 2.2 c 0 0.2 0 0.3 0 0.5 l 1 -0.1 a 7 7 0 0 0 0.9 3 l -0.9 0.5 a 8 8 0 0 0 1.7 2.1 l 0.7 -0.7 a 7 7 0 0 0 2.7 1.5 l -0.3 1 l 0 0 a 8 8 0 0 0 2.2 0.3 c 0.2 0 0.3 0 0.5 0 l -0.1 -1 a 7 7 0 0 0 3 -0.9 l 0.5 0.9 a 8 8 0 0 0 2.1 -1.7 l -0.7 -0.7 a 7 7 0 0 0 1.5 -2.7 l 1 0.3 l 0 0 a 8 8 0 0 0 0.3 -2.2 c 0 -0.2 0 -0.3 0 -0.5 Z m -8.8 6.6 h 0 l 0.1 -0.2 Z m 5.8 -5 a 4.2 4.2 0 1 1 0.2 -1.2 A 4.3 4.3 0 0 1 365.3 215.1 Z" transform="translate(23.8,-21)" fill="none" stroke="#99a6d6" stroke-miterlimit="10" stroke-width="0.262" />
            <path id="Path_110" data-name="Path 110" d="M 232.6 121.4 a 5.4 5.4 0 1 1 -5.4 -5.4 A 5.4 5.4 0 0 1 232.6 121.4 Z" transform="translate(-8.8,-43.3)" fill="none" stroke="#99a6d6" stroke-miterlimit="10" stroke-width="0.541" />
            <path id="Path_111" data-name="Path 111" d="M 323.1 61.1 a 3.4 3.4 0 1 1 -3.4 -3.4 A 3.4 3.4 0 0 1 323.1 61.1 Z" transform="translate(14.7,-57.7)" fill="none" stroke="#99a6d6" stroke-miterlimit="10" stroke-width="0.541" />
            <path id="Path_112" data-name="Path 112" d="M 415.5 127.5 a 3.4 3.4 0 1 1 -3.4 -3.4 A 3.4 3.4 0 0 1 415.5 127.5 Z" transform="translate(37.6,-41.3)" fill="none" stroke="#99a6d6" stroke-miterlimit="10" stroke-width="0.541" />
            <path id="Path_113" data-name="Path 113" d="M 428.5 189.1 a 3.4 3.4 0 1 1 -3.4 -3.4 A 3.4 3.4 0 0 1 428.5 189.1 Z" transform="translate(40.8,-25.9)" fill="none" stroke="#99a6d6" stroke-miterlimit="10" stroke-width="0.541" />
            <circle id="Ellipse_11" data-name="Ellipse 11" cx="3.4" cy="3.4" r="3.4" transform="translate(309.9,74.8)" fill="none" stroke="#99a6d6" stroke-miterlimit="10" stroke-width="0.541" />
            <path id="Path_114" data-name="Path 114" d="M 198 71.9 a 3.4 3.4 0 1 1 -3.4 -3.4 A 3.4 3.4 0 0 1 198 71.9 Z" transform="translate(-16.4,-55)" fill="none" stroke="#99a6d6" stroke-miterlimit="10" stroke-width="0.541" />
            <path id="Path_115" data-name="Path 115" d="M 97 152.4 a 3.4 3.4 0 1 1 -3.4 -3.4 A 3.4 3.4 0 0 1 97 152.4 Z" transform="translate(-41.4,-35.1)" fill="none" stroke="#99a6d6" stroke-miterlimit="10" stroke-width="0.541" />
            <g id="Group_122" data-name="Group 122" transform="translate(256.3,6.9)">
                <line id="Line_10" data-name="Line 10" y2="6.523" transform="translate(3.262)" fill="none" stroke="#99a6d6" stroke-miterlimit="10" stroke-width="0.541" />
                <line id="Line_11" data-name="Line 11" x1="6.523" transform="translate(0 3.262)" fill="none" stroke="#99a6d6" stroke-miterlimit="10" stroke-width="0.541" />
            </g>
            <g id="Group_123" data-name="Group 123" transform="translate(61.9,198.1)">
                <line id="Line_12" data-name="Line 12" y2="6.523" transform="translate(3.262)" fill="none" stroke="#99a6d6" stroke-miterlimit="10" stroke-width="0.541" />
                <line id="Line_13" data-name="Line 13" x1="6.523" transform="translate(0 3.262)" fill="none" stroke="#99a6d6" stroke-miterlimit="10" stroke-width="0.541" />
            </g>
            <g id="Group_124" data-name="Group 124" transform="translate(170.8,67.2)">
                <line id="Line_14" data-name="Line 14" y2="6.523" transform="translate(3.262)" fill="none" stroke="#99a6d6" stroke-miterlimit="10" stroke-width="0.541" />
                <line id="Line_15" data-name="Line 15" x1="6.523" transform="translate(0 3.262)" fill="none" stroke="#99a6d6" stroke-miterlimit="10" stroke-width="0.541" />
            </g>
            <g id="Group_125" data-name="Group 125" transform="translate(96.5,140.2)">
                <line id="Line_16" data-name="Line 16" y2="6.523" transform="translate(3.262 0)" fill="none" stroke="#99a6d6" stroke-miterlimit="10" stroke-width="0.541" />
                <line id="Line_17" data-name="Line 17" x1="6.523" transform="translate(0 3.262)" fill="none" stroke="#99a6d6" stroke-miterlimit="10" stroke-width="0.541" />
            </g>
            <g id="Group_126" data-name="Group 126" transform="translate(24.7,73.4)">
                <line id="Line_18" data-name="Line 18" y2="6.523" transform="translate(3.262)" fill="none" stroke="#99a6d6" stroke-miterlimit="10" stroke-width="0.541" />
                <line id="Line_19" data-name="Line 19" x1="6.523" transform="translate(0 3.262)" fill="none" stroke="#99a6d6" stroke-miterlimit="10" stroke-width="0.541" />
            </g>
        </g>
    </g>
</svg>
