<?xml version="1.0" encoding="utf-8"?>
<svg id="master-artboard" viewBox="0 0 1400 980" version="1.1" xmlns="http://www.w3.org/2000/svg" x="0px" y="0px" style="enable-background:new 0 0 1400 980;" width="1400px" height="980px"><rect id="ee-background" x="0" y="0" width="1400" height="980" style="fill: white; fill-opacity: 0; pointer-events: none;"/><defs><style id="ee-google-fonts">@import url(https://fonts.googleapis.com/css?family=Roboto:100,100italic,300,300italic,400,400italic,500,500italic,700,700italic,900,900italic);</style><linearGradient id="linear-gradient" x1="0.5" y1="0.98" x2="0.5" y2="0.034" gradientUnits="objectBoundingBox">
            <stop offset="0" stop-color="#ffffff"/>
            <stop offset="1"/>
        </linearGradient></defs>























































































































<g transform="matrix(1.0646898746490479, 0, 0, 1.0646898746490479, -50.518067696256594, -36.17843570067441)"><g transform="matrix(1.965240478515625, 0, 0, 1.965240478515625, -678.3763886456993, -168.0921440699962)"><g transform="matrix(1.379569411277771, 0, 0, 1.379569411277771, -0.000031686416377851856, 131.35099498888113)"><path d="M807.8192,493.75781H393.79357a3.28124,3.28124,0,0,1-3.27344-3.27246V193.30176a3.28052,3.28052,0,0,1,3.27271-3.27344H807.818a3.28093,3.28093,0,0,1,3.27344,3.27246v297.1836A3.28119,3.28119,0,0,1,807.8192,493.75781ZM393.7943,192.02832a1.27733,1.27733,0,0,0-1.27417,1.27441V490.48438a1.278,1.278,0,0,0,1.27466,1.27343H807.818a1.278,1.278,0,0,0,1.27344-1.27441V193.30176a1.27728,1.27728,0,0,0-1.27417-1.27344H393.7943Z" transform="matrix(1.1256502866744995, 0, 0, 0.9784830808639526, -166.44932556152344, -183.30280923354917)" fill="#3f3d56"/><g transform="matrix(1.225469708442688, 0, 0, 1.225469708442688, -112.36231921930832, -10.940955435642053)"><path d="M784.95776,215.552V426.74653a5.31536,5.31536,0,0,1-5.3136,5.31714H421.12463a4.48228,4.48228,0,0,1-.762-.05927,5.31218,5.31218,0,0,1-4.55511-5.25787V215.552a5.31532,5.31532,0,0,1,5.31354-5.31709H779.64062a5.31535,5.31535,0,0,1,5.31714,5.31358Z" transform="matrix(0.9999999999999999, 0, 0, 0.9999999999999999, -92.59530066470873, -190.02831606503605)" fill="#f2f2f2"/><g transform="matrix(0.2061353623867035, 0, 0, 0.2061353623867035, 326.56637562875153, 44.184092716427976)"><g transform="matrix(0.9999999999999999, 0, 0, 0.9999999999999999, 144.54861200139612, 20.649801756857187)"><g transform="matrix(0.9999999999999999, 0, 0, 0.9999999999999999, 0, -2.2737367544323206e-13)"><path d="M 474 237 A 237 237 0 0 1 237 474 A 237 237 0 0 1 0 237 A 237 237 0 0 1 237 0 A 237 237 0 0 1 474 237 Z" style="fill: rgb(27, 163, 154)" transform="matrix(0.9999999999999999, 0, 0, 0.9999999999999999, 0, -2.2737367544323206e-13)"/></g></g><path style="fill: rgb(10, 99, 115)" d="M 405.2 70.1 c 92.5 92.5 92.5 242.6 0 335.1 c -92.5 92.5 -242.6 92.5 -335.1 0 L 405.2 70.1 z" transform="matrix(1, 0, 0, 1, 144.1875173464682, 19.927596452885496)"/><g transform="matrix(1, 0, 0, 1, 135.5611043895451, 7.09500564228955)"><path style="fill: rgb(13, 84, 105)" d="M 465.6 298.9 L 295.6 128.4 l -34.6 34.7 l -95 -13.4 l 19.6 89.1 l -68.3 68.5 l 24 24.1 l -5.9 5.9 l 133.9 134.3 C 364 458.8 440.9 389.7 465.6 298.9 z" transform="matrix(0.9999999999999999, 0, 0, 0.9999999999999999, 0, -2.2737367544323206e-13)"/></g><g transform="matrix(0.9999999999999999, 0, 0, 0.9999999999999999, 144.54860950084003, 15.487351017946935)"><path style="fill: #ffffff" d="M 286.1 362.5 c 44.4 0 80.4 -36.1 80.7 -80.3 l 0.5 -65 l -0.7 -3.5 l -2.1 -4.4 l -3.6 -2.8 c -4.7 -3.7 -28.4 0.2 -34.8 -5.5 c -4.5 -4.1 -5.2 -11.6 -6.6 -21.8 c -2.5 -19.6 -4.2 -20.7 -7.2 -27.3 c -11.2 -23.6 -41.5 -41.4 -62.3 -43.8 h -56.4 c -44.4 0 -80.6 36.2 -80.6 80.4 v 93.8 c 0 44.1 36.3 80.3 80.6 80.3 H 286.1 z M 194.5 173.7 h 44.7 c 8.5 0 15.5 6.9 15.5 15.4 c 0 8.4 -6.9 15.4 -15.5 15.4 h -44.7 c -8.5 0 -15.4 -7 -15.4 -15.4 C 179.1 180.6 186 173.7 194.5 173.7 z M 179.1 281 c 0 -8.4 6.9 -15.3 15.4 -15.3 h 90.8 c 8.5 0 15.4 6.9 15.4 15.3 c 0 8.3 -6.9 15.3 -15.4 15.3 h -90.8 C 186 296.3 179.1 289.3 179.1 281 z" transform="matrix(0.9999999999999999, 0, 0, 0.9999999999999999, 0, -2.2737367544323206e-13)"/></g><g>
</g><g>
</g><g>
</g><g>
</g><g>
</g><g>
</g><g>
</g><g>
</g><g>
</g><g>
</g><g>
</g><g>
</g><g>
</g><g>
</g><g>
</g></g></g><g><path d="M652.4616,432.91035H423.62225a4.66646,4.66646,0,0,1-.85517-.06775L530.99755,245.37185a7.578,7.578,0,0,1,13.19122,0L616.825,371.17927l3.47986,6.01989Z" transform="matrix(0.9999999999999999, 0, 0, 0.9999999999999999, -92.59530066470873, -190.02831606503605)" fill="#3f3d56"/></g><path d="M 559.8660278320312 242.8820037841797 L 481.7349853515625 242.8820037841797 L 520.0889892578125 187.17100524902344 L 522.8499755859375 183.1580047607422 L 524.22998046875 181.1510009765625 L 527.7100219726562 187.17100524902344 L 559.8660278320312 242.8820037841797 Z" opacity="0.2" style="isolation:isolate"/><path d="M779.87768,432.91035H581.95043l38.35443-55.71122,2.76013-4.01327,49.97925-72.60239c3.27661-4.7583,11.15918-5.05462,15.01154-.89746a9.03328,9.03328,0,0,1,.71973.89746Z" transform="translate(-92.5953 -190.02832)" fill="#3f3d56"/><path d="M 317.592074 292.105865 A 6.35007 6.35007 0 0 1 311.242004 298.455935 A 6.35007 6.35007 0 0 1 304.891934 292.105865 A 6.35007 6.35007 0 0 1 311.242004 285.755795 A 6.35007 6.35007 0 0 1 317.592074 292.105865 Z" fill="#0f857d" transform="matrix(1, 0, 0, 1, -18.305675056781325, -17.06887321624249)"/><path d="M 317.592074 12.10587 A 6.35007 6.35007 0 0 1 311.242004 18.45594 A 6.35007 6.35007 0 0 1 304.891934 12.10587 A 6.35007 6.35007 0 0 1 311.242004 5.7558 A 6.35007 6.35007 0 0 1 317.592074 12.10587 Z" fill="#0f857d" transform="matrix(1, 0, 0, 1, -17.40756322755148, 11.219775513851125)"/><path d="M 712.592074 12.10587 A 6.35007 6.35007 0 0 1 706.242004 18.45594 A 6.35007 6.35007 0 0 1 699.891934 12.10587 A 6.35007 6.35007 0 0 1 706.242004 5.7558 A 6.35007 6.35007 0 0 1 712.592074 12.10587 Z" fill="#0f857d" transform="matrix(0.9999999999999999, 0, 0, 0.9999999999999999, 19.282602549542275, 11.16361200236662)"/><path d="M 712.592074 292.105865 A 6.35007 6.35007 0 0 1 706.242004 298.455935 A 6.35007 6.35007 0 0 1 699.891934 292.105865 A 6.35007 6.35007 0 0 1 706.242004 285.755795 A 6.35007 6.35007 0 0 1 712.592074 292.105865 Z" fill="#0f857d" transform="matrix(1, 0, 0, 1, 19.052705597734295, -17.081736053141093)"/></g></g></g></svg>