<?xml version="1.0" encoding="iso-8859-1"?>
<!-- Generator: Adobe Illustrator 19.0.0, SVG Export Plug-In . SVG Version: 6.00 Build 0)  -->
<svg version="1.1" id="Layer_1" xmlns="http://www.w3.org/2000/svg" xmlns:xlink="http://www.w3.org/1999/xlink" x="0px" y="0px"
	 viewBox="0 0 474.649 474.649" style="enable-background: new 0 0 474.649 474.649" xml:space="preserve">
<circle style="fill: rgb(27, 163, 154)" cx="237" cy="237" r="237"/>
<path style="fill: rgb(10, 99, 115)" d="M 405.2 70.1 c 92.5 92.5 92.5 242.6 0 335.1 c -92.5 92.5 -242.6 92.5 -335.1 0 L 405.2 70.1 z"/>
<path style="fill: rgb(13, 84, 105)" d="M 465.6 298.9 L 295.6 128.4 l -34.6 34.7 l -95 -13.4 l 19.6 89.1 l -68.3 68.5 l 24 24.1 l -5.9 5.9 l 133.9 134.3 C 364 458.8 440.9 389.7 465.6 298.9 z"/>
<path style="fill: #ffffff" d="M 286.1 362.5 c 44.4 0 80.4 -36.1 80.7 -80.3 l 0.5 -65 l -0.7 -3.5 l -2.1 -4.4 l -3.6 -2.8 c -4.7 -3.7 -28.4 0.2 -34.8 -5.5 c -4.5 -4.1 -5.2 -11.6 -6.6 -21.8 c -2.5 -19.6 -4.2 -20.7 -7.2 -27.3 c -11.2 -23.6 -41.5 -41.4 -62.3 -43.8 h -56.4 c -44.4 0 -80.6 36.2 -80.6 80.4 v 93.8 c 0 44.1 36.3 80.3 80.6 80.3 H 286.1 z M 194.5 173.7 h 44.7 c 8.5 0 15.5 6.9 15.5 15.4 c 0 8.4 -6.9 15.4 -15.5 15.4 h -44.7 c -8.5 0 -15.4 -7 -15.4 -15.4 C 179.1 180.6 186 173.7 194.5 173.7 z M 179.1 281 c 0 -8.4 6.9 -15.3 15.4 -15.3 h 90.8 c 8.5 0 15.4 6.9 15.4 15.3 c 0 8.3 -6.9 15.3 -15.4 15.3 h -90.8 C 186 296.3 179.1 289.3 179.1 281 z"/>
<g>
</g>
<g>
</g>
<g>
</g>
<g>
</g>
<g>
</g>
<g>
</g>
<g>
</g>
<g>
</g>
<g>
</g>
<g>
</g>
<g>
</g>
<g>
</g>
<g>
</g>
<g>
</g>
<g>
</g>
</svg>
