<?xml version="1.0" encoding="utf-8"?>
<svg id="master-artboard" viewBox="0 0 1400 980" version="1.1" xmlns="http://www.w3.org/2000/svg" x="0px" y="0px" style="enable-background:new 0 0 1400 980;" width="1400px" height="980px"><rect id="ee-background" x="0" y="0" width="1400" height="980" style="fill: white; fill-opacity: 0; pointer-events: none;"/><defs><style id="ee-google-fonts">@import url(https://fonts.googleapis.com/css?family=Roboto:100,100italic,300,300italic,400,400italic,500,500italic,700,700italic,900,900italic);</style><linearGradient id="linear-gradient" x1="0.5" y1="0.98" x2="0.5" y2="0.034" gradientUnits="objectBoundingBox">
            <stop offset="0" stop-color="#ffffff"/>
            <stop offset="1"/>
        </linearGradient></defs>
<g transform="matrix(2.1029547129817407, 0, 0, 2.1029547129817407, 100.6578854404462, 2.3089397416242718e-7)"><g id="Group_146" data-name="Group 146" transform="matrix(1,0,0,1,-26.5,-57.5)">
        <g id="Group_76" data-name="Group 76" transform="translate(29.8,115.5)">
            <g id="Group_75" data-name="Group 75">
                <path id="Path_12" data-name="Path 12" d="M 560.9 393.1 H 110.3 c -4.5 0 -9.2 0.5 -13.7 0 c -31.5 -3.5 -53.1 -38.1 -62.1 -65.6 a 110.4 110.4 0 0 1 -4.8 -21.8 C 27.2 283 31.9 259.5 47.6 242.2 C 61.4 227 84.4 225 96.8 208.8 c 9.2 -11.9 9.8 -28.2 15 -41.9 c 3.4 -8.9 9 -17.3 17 -22.5 c 6.8 -4.4 15 -6.2 23.1 -6.8 a 85.1 85.1 0 0 1 37.7 6 a 104 104 0 0 0 38.6 7.5 c 15.5 0.2 30.2 -2.3 45.2 -6.2 c 14.6 -3.8 30.1 -5.1 43.5 -12.5 c 19 -10.4 32.6 -24.6 55 -27.7 c 23.9 -3.3 50.6 5 66.9 23.2 c 11 12.3 15.7 28.3 12.2 44.5 c -2.1 10 -7.2 21 0.6 29.9 c 5.1 5.9 13.5 7.8 21.2 8.4 c 21 1.6 39.4 5.8 54.5 21.7 c 15 15.7 16.2 30.8 17.2 51.4 a 90 90 0 0 1 -2 21.8 c -0.4 1.8 -0.8 3.6 -1.2 5.4 c -0.3 1.1 -0.5 2.2 -0.8 3.3 c -2.2 9 -6.2 18.3 -6.2 27.6 c -0.1 16.7 15 25.2 21.8 38.7 C 556.8 381.8 560.9 393.1 560.9 393.1 Z" transform="translate(-29.1,-104)" fill="#d9dffb"/>
            </g>
        </g>
        <path id="Path_13" data-name="Path 13" d="M 542.6 305.7 H 29.8 C 27.2 283 31.9 259.5 47.6 242.2 C 61.4 227 84.4 225 96.8 208.8 c 9.2 -11.9 9.8 -28.2 15 -41.9 c 3.4 -8.9 9 -17.3 17 -22.5 c 6.8 -4.4 15 -6.2 23.1 -6.8 a 85.1 85.1 0 0 1 37.7 6 a 104 104 0 0 0 38.6 7.5 c 15.5 0.2 30.2 -2.3 45.2 -6.2 c 14.6 -3.8 30.1 -5.1 43.5 -12.5 c 19 -10.4 32.6 -24.6 55 -27.7 c 23.9 -3.3 50.6 5 66.9 23.2 c 11 12.3 15.7 28.3 12.2 44.5 c -2.1 10 -7.2 21 0.6 29.9 c 5.1 5.9 13.5 7.8 21.2 8.4 c 21 1.6 39.4 5.8 54.5 21.7 c 15 15.7 16.2 30.8 17.2 51.4 A 90 90 0 0 1 542.6 305.7 Z" transform="translate(0.6,11.5)" opacity="0.2" fill="url(#linear-gradient)" style="mix-blend-mode: screen; isolation: isolate"/>
        
        
        
        <g id="Group_78" data-name="Group 78" transform="translate(394.4,377.4)">
            <g id="Group_77" data-name="Group 77">
                <path id="Path_17" data-name="Path 17" d="M 406.7 329.6 v 9.6 H 321.3 a 8.1 8.1 0 0 1 6.3 -6.5 c 4.1 -0.8 7.1 2.3 7.3 2.5 c 0.2 -0.6 2 -6.5 7.8 -8.5 a 12.4 12.4 0 0 1 8 0 a 5.7 5.7 0 0 1 7 -7.5 a 11.4 11.4 0 0 1 20.6 3.5 a 5.7 5.7 0 0 1 10.3 1.5 a 10.5 10.5 0 0 1 18 5.5 Z" transform="translate(-321.3,-313.8)" fill="#99a6d6"/>
                <path id="Path_18" data-name="Path 18" d="M 388.2 337.6 h 31.6 a 6.8 6.8 0 0 0 -11 -6.5 a 3.5 3.5 0 0 0 -5.8 -3.9 a 9.2 9.2 0 0 0 -6.3 -6.8 c -4.1 -1.1 -8.8 1.2 -10.8 5.6 Q 387 331.8 388.2 337.6 Z" transform="translate(-305.3,-312.3)" fill="#0f857d"/>
            </g>
        </g>
        
        
        
        
        <g id="Group_81" data-name="Group 81" transform="translate(471.5,384.4)">
            <g id="Group_80" data-name="Group 80">
                <path id="Path_23" data-name="Path 23" d="M 444.9 330.8 v 6.9 H 383 a 5.8 5.8 0 0 1 4.6 -4.7 a 6.2 6.2 0 0 1 5.3 1.8 a 9.6 9.6 0 0 1 5.6 -6.2 a 9 9 0 0 1 5.8 0 a 4.2 4.2 0 0 1 5.1 -5.5 a 8.2 8.2 0 0 1 14.9 2.5 a 4.1 4.1 0 0 1 7.5 1.1 a 7.6 7.6 0 0 1 13 4 Z" transform="translate(-383,-319.4)" fill="#99a6d6"/>
                <g id="Group_79" data-name="Group 79" transform="translate(58.3,5.7)">
                    <path id="Path_24" data-name="Path 24" d="M 431.5 336.6 h 22.9 a 4.9 4.9 0 0 0 -8 -4.7 a 2.6 2.6 0 0 0 -4.2 -2.8 a 6.7 6.7 0 0 0 -4.6 -4.9 a 6.9 6.9 0 0 0 -7.8 4.1 Q 430.6 332.5 431.5 336.6 Z" transform="translate(-429.7,-324)" fill="#bdc9f4"/>
                </g>
            </g>
        </g>
        
        <g id="Group_83" data-name="Group 83" transform="translate(243.4,374.8)">
            <path id="Path_25" data-name="Path 25" d="M 297.4 329.7 v 10.9 h -97.2 a 9.2 9.2 0 0 1 7.2 -7.4 c 4.7 -0.9 8.1 2.6 8.3 2.9 c 0.2 -0.7 2.3 -7.4 8.9 -9.7 a 14.1 14.1 0 0 1 9.2 0 a 6.5 6.5 0 0 1 8 -8.6 a 12.9 12.9 0 0 1 23.5 4 a 6.5 6.5 0 0 1 11.7 1.7 a 12 12 0 0 1 20.5 6.3 Z" transform="translate(-200.2,-311.8)" fill="#99a6d6"/>
            <path id="Path_26" data-name="Path 26" d="M 276.4 338.8 h 35.9 a 7.7 7.7 0 0 0 -12.5 -7.4 a 4 4 0 0 0 -6.6 -4.4 a 10.5 10.5 0 0 0 -7.2 -7.7 c -4.7 -1.3 -10 1.3 -12.3 6.4 Q 275 332.3 276.4 338.8 Z" transform="translate(-182,-310)" fill="#bdc9f4"/>
        </g>
        <path id="Path_64" data-name="Path 64" d="M 38.7 336.9 c 14.1 0 17.4 19.2 22.3 29 c 7 14 19.6 25.1 35.8 26.2 c 10.4 0.7 20.7 -2.7 31.2 -2.6 c 52.4 0.5 77.2 65.6 129.6 64.9 c 32.2 -0.4 60 -19.2 87.6 -34 c 14.2 -7.6 28.9 -14.6 44.8 -17.7 c 20.1 -4 40.1 -0.4 60.1 2.1 c 4.7 0.6 9.3 1.1 14 1.5 c 40.9 3.3 102.9 -16.2 107.2 -64.6 q 0.1 -1.4 0.2 -2.8 q 0 -1.3 0 -2.7 Z" transform="translate(3,69.1)" fill="#0a6373"/>
        <path id="Path_65" data-name="Path 65" d="M 594.1 334.1 H 28.9 a 2.4 2.4 0 0 0 0 4.8 H 594.1 a 2.4 2.4 0 1 0 0 -4.8 Z" transform="translate(0,68.6)" fill="#0a6373"/>
        <g id="Group_115" data-name="Group 115" transform="translate(82.4,324.6)">
            <g id="Group_110" data-name="Group 110">
                <path id="Path_93" data-name="Path 93" d="M 71.3 293.2 c 7.1 0.4 9.5 7.4 10 9.6 l 7.8 7.8 V 285.5 c -5.6 -5.6 -1.2 -14 -1.2 -14 c 7.1 5.1 3.3 11.9 2 13.8 v 10.1 l 7 -7 c 0.6 -7.9 9.8 -10 9.8 -10 c 0.8 8.7 -6.9 10.2 -9.2 10.5 L 90 296.6 l -0.1 -0.1 V 335.5 h -0.8 V 311.6 l -0.1 0.1 l -8.2 -8.2 C 71.2 303.6 71.3 293.2 71.3 293.2 Z" transform="translate(-71.3,-271.6)" fill="#ff502f"/>
                <path id="Rectangle_17" data-name="Rectangle 17" d="M 3.3 0 h 10 a 3.3 3.3 0 0 1 3.3 3.3 V 16.7 a 0 0 0 0 1 0 0 H 0 a 0 0 0 0 1 0 0 V 3.3 A 3.3 3.3 0 0 1 3.3 0 Z" transform="translate(26.8,78.4) rotate(180)" fill="#0a6373"/>
            </g>
            <g id="Group_114" data-name="Group 114" transform="translate(17.3,30.5)">
                <g id="Group_113" data-name="Group 113">
                    <g id="Group_112" data-name="Group 112">
                        <g id="Group_111" data-name="Group 111">
                            <path id="Path_94" data-name="Path 94" d="M 108.1 314.3 l -4.1 3.8 V 314 c 3.1 -1.6 10 -7 6.4 -18 c 0 0 -12.5 4.8 -8 18 v 5.8 L 98.9 316 c -0.5 -3 -3.3 -10.5 -13.7 -10.2 c 0 0 0.8 11.5 12.7 11.5 l 4.5 5 v 7.7 h 1.6 v -9.7 l 5.2 -4.7 c 10.5 0.7 12.1 -9.4 12.1 -9.4 C 111.8 305.1 108.8 311.6 108.1 314.3 Z" transform="translate(-85.2,-296)" fill="#49beb7"/>
                        </g>
                    </g>
                </g>
                <path id="Path_95" data-name="Path 95" d="M 109.6 338 H 94.1 l -3.2 -17.8 h 21.8 Z" transform="translate(-83.8,-290)" fill="#1b2c56"/>
            </g>
        </g>
        <g id="Group_121" data-name="Group 121" transform="translate(566.1,325.8)">
            <g id="Group_120" data-name="Group 120">
                <g id="Group_119" data-name="Group 119">
                    <g id="Group_116" data-name="Group 116" transform="translate(10)">
                        <path id="Path_96" data-name="Path 96" d="M 473.1 284.7 a 71.5 71.5 0 0 1 -1.8 -11.5 l 0 -0.7 l -0.5 0.5 a 8.1 8.1 0 0 0 -2.1 5.2 c 0 0.8 0.1 1.6 0.1 2.3 a 10 10 0 0 1 -0.6 5.4 c -1.3 2.9 -2.1 5.4 -0.4 9.4 l 0.5 1.1 c 1.3 3 1.8 4.2 1.3 6.5 a 8 8 0 0 0 4.5 8.2 c -0.1 5.4 -0.3 9.8 -0.3 9.9 l 0.6 0 c 0 -0.2 0.7 -20.4 0.3 -26.7 A 71.3 71.3 0 0 0 473.1 284.7 Z" transform="translate(-466.9,-272.5)" fill="#ff502f"/>
                    </g>
                    <g id="Group_117" data-name="Group 117" transform="translate(0,13.5)">
                        <path id="Path_97" data-name="Path 97" d="M 459.7 283.6 l -0.3 -0.2 l -0.1 0.3 a 6 6 0 0 0 0.7 5.8 a 7.6 7.6 0 0 1 1.3 4 a 11.2 11.2 0 0 0 1.9 5.7 a 13.2 13.2 0 0 0 3.4 3.1 c 1.3 0.9 2.2 1.5 2.4 3.1 c 0 0.3 0.1 0.5 0.1 0.8 c 0.3 2.5 0.5 3.9 4.1 5.1 c 1.1 4.1 1.5 6.9 1.6 7 l 0.6 -0.1 C 475.3 318 470.9 292.4 459.7 283.6 Z" transform="translate(-458.8,-283.4)" fill="#ff502f"/>
                    </g>
                    <g id="Group_118" data-name="Group 118" transform="translate(18.1,20.5)">
                        <path id="Path_98" data-name="Path 98" d="M 481 289.3 l -0.1 -0.4 l -0.3 0.2 c -8.6 5.5 -7.2 26.6 -7.2 27.5 l 0.3 0 h 0 l 0.3 0 c 0 -0.1 -0.1 -2 -0.1 -4.8 c 0.3 -0.4 1.3 -2 2.1 -3.3 a 2.9 2.9 0 0 0 0.2 -2.4 a 5.9 5.9 0 0 1 -0.1 -2.6 a 4.7 4.7 0 0 1 1.2 -2.4 a 7.6 7.6 0 0 0 1.3 -2.1 a 6.8 6.8 0 0 0 0.4 -2.9 a 3.7 3.7 0 0 1 0.7 -2.8 A 4.9 4.9 0 0 0 481 289.3 Z" transform="translate(-473.3,-288.9)" fill="#ff502f"/>
                    </g>
                </g>
            </g>
            <path id="Path_99" data-name="Path 99" d="M 479.4 339.9 h -10 l -2.8 -29.3 h 15.5 Z" transform="translate(-456.9,-263)" fill="#1b2c56"/>
        </g>
        <g id="Group_127" data-name="Group 127" transform="translate(57.2,57.7)">
            <path id="Path_100" data-name="Path 100" d="M 368.5 89.9 a 11.2 11.2 0 0 0 -1.4 -4.8 l 1.4 -0.8 a 12.9 12.9 0 0 0 -2.7 -3.3 l -1.1 1.2 a 11.2 11.2 0 0 0 -4.4 -2.4 l 0.4 -1.5 l 0 0 a 12.8 12.8 0 0 0 -3.5 -0.5 c -0.3 0 -0.5 0 -0.8 0 l 0.1 1.6 a 11.2 11.2 0 0 0 -4.8 1.4 l -0.8 -1.4 a 12.8 12.8 0 0 0 -3.3 2.7 l 1.2 1.1 a 11.2 11.2 0 0 0 -2.4 4.4 l -1.5 -0.4 l 0 0 a 12.8 12.8 0 0 0 -0.5 3.5 q 0 0.4 0 0.7 l 1.6 -0.1 a 11.2 11.2 0 0 0 1.4 4.8 l -1.4 0.8 a 12.9 12.9 0 0 0 2.7 3.4 l 1.1 -1.2 a 11.2 11.2 0 0 0 4.4 2.4 l -0.4 1.5 l 0 0 a 12.8 12.8 0 0 0 3.5 0.5 q 0.4 0 0.8 0 l -0.1 -1.6 a 11.2 11.2 0 0 0 4.8 -1.4 l 0.8 1.4 a 12.8 12.8 0 0 0 3.3 -2.7 l -1.2 -1.1 a 11.2 11.2 0 0 0 2.4 -4.4 l 1.5 0.4 l 0 0 a 12.8 12.8 0 0 0 0.5 -3.5 c 0 -0.3 0 -0.5 0 -0.8 Z m -14 10.5 h 0 l 0.1 -0.3 Z m 9.3 -8 a 6.8 6.8 0 1 1 0.3 -1.9 A 6.8 6.8 0 0 1 363.8 92.4 Z" transform="translate(21.7,-52.8)" fill="none" stroke="#99a6d6" stroke-miterlimit="10" stroke-width="0.541"/>
            <path id="Path_101" data-name="Path 101" d="M 338.5 173.9 a 11.2 11.2 0 0 0 -1.4 -4.8 l 1.4 -0.8 a 12.9 12.9 0 0 0 -2.7 -3.3 l -1.1 1.2 a 11.2 11.2 0 0 0 -4.4 -2.4 l 0.4 -1.5 l 0 0 a 12.8 12.8 0 0 0 -3.5 -0.5 c -0.3 0 -0.5 0 -0.8 0 l 0.1 1.6 a 11.2 11.2 0 0 0 -4.8 1.4 l -0.8 -1.4 a 12.8 12.8 0 0 0 -3.3 2.7 l 1.2 1.1 a 11.2 11.2 0 0 0 -2.4 4.4 l -1.5 -0.4 l 0 0 a 12.8 12.8 0 0 0 -0.5 3.5 q 0 0.4 0 0.7 l 1.6 -0.1 a 11.2 11.2 0 0 0 1.4 4.8 l -1.4 0.8 a 12.9 12.9 0 0 0 2.7 3.4 l 1.1 -1.2 a 11.2 11.2 0 0 0 4.4 2.4 l -0.4 1.5 l 0 0 a 12.8 12.8 0 0 0 3.5 0.5 q 0.4 0 0.8 0 l -0.1 -1.6 a 11.2 11.2 0 0 0 4.8 -1.4 l 0.8 1.4 a 12.8 12.8 0 0 0 3.3 -2.7 l -1.2 -1.1 a 11.2 11.2 0 0 0 2.4 -4.4 l 1.5 0.4 l 0 0 a 12.8 12.8 0 0 0 0.5 -3.5 c 0 -0.3 0 -0.5 0 -0.8 Z m -14 10.5 h 0 l 0.1 -0.3 Z m 9.3 -8 a 6.8 6.8 0 1 1 0.3 -1.9 A 6.8 6.8 0 0 1 333.8 176.4 Z" transform="translate(14.2,-31.9)" fill="none" stroke="#99a6d6" stroke-miterlimit="10" stroke-width="0.541"/>
            <path id="Path_102" data-name="Path 102" d="M 120.3 107.3 a 6.7 6.7 0 0 0 -0.8 -2.9 l 0.8 -0.5 a 7.7 7.7 0 0 0 -1.6 -2 l -0.6 0.7 a 6.7 6.7 0 0 0 -2.6 -1.4 l 0.3 -0.9 l 0 0 a 7.6 7.6 0 0 0 -2.1 -0.3 c -0.1 0 -0.3 0 -0.4 0 l 0.1 0.9 a 6.7 6.7 0 0 0 -2.9 0.8 l -0.5 -0.8 a 7.6 7.6 0 0 0 -2 1.6 l 0.7 0.6 a 6.7 6.7 0 0 0 -1.4 2.6 l -0.9 -0.3 l 0 0 a 7.6 7.6 0 0 0 -0.3 2.1 c 0 0.1 0 0.3 0 0.4 l 0.9 -0.1 a 6.7 6.7 0 0 0 0.8 2.9 l -0.8 0.5 a 7.7 7.7 0 0 0 1.6 2 l 0.6 -0.7 a 6.7 6.7 0 0 0 2.6 1.4 l -0.3 0.9 l 0 0 a 7.7 7.7 0 0 0 2.1 0.3 c 0.2 0 0.3 0 0.5 0 l -0.1 -0.9 a 6.7 6.7 0 0 0 2.9 -0.8 l 0.5 0.8 a 7.6 7.6 0 0 0 2 -1.6 l -0.7 -0.6 a 6.7 6.7 0 0 0 1.4 -2.6 l 0.9 0.3 v 0 a 7.6 7.6 0 0 0 0.3 -2.1 c 0 -0.2 0 -0.3 0 -0.5 Z m -8.3 6.3 h 0 l 0 -0.2 Z m 5.6 -4.8 a 4 4 0 1 1 0.2 -1.1 A 4 4 0 0 1 117.5 108.8 Z" transform="translate(-37.5,-47.2)" fill="none" stroke="#99a6d6" stroke-miterlimit="10" stroke-width="0.322"/>
            <path id="Path_103" data-name="Path 103" d="M 75.2 180.4 a 11.2 11.2 0 0 0 -1.4 -4.8 l 1.4 -0.8 a 12.9 12.9 0 0 0 -2.7 -3.3 L 71.4 172.7 a 11.2 11.2 0 0 0 -4.4 -2.4 l 0.4 -1.5 l 0 0 a 12.8 12.8 0 0 0 -3.5 -0.5 q -0.4 0 -0.8 0 l 0.1 1.6 a 11.2 11.2 0 0 0 -4.8 1.4 l -0.8 -1.4 a 12.9 12.9 0 0 0 -3.3 2.7 l 1.2 1.1 a 11.2 11.2 0 0 0 -2.4 4.4 l -1.5 -0.4 l 0 0 a 12.8 12.8 0 0 0 -0.5 3.5 c 0 0.2 0 0.5 0 0.7 l 1.6 -0.1 a 11.2 11.2 0 0 0 1.4 4.8 l -1.4 0.8 a 12.8 12.8 0 0 0 2.7 3.4 l 1.1 -1.2 a 11.2 11.2 0 0 0 4.4 2.4 l -0.4 1.5 l 0 0 a 12.8 12.8 0 0 0 3.5 0.5 c 0.3 0 0.5 0 0.8 0 l -0.1 -1.6 a 11.2 11.2 0 0 0 4.8 -1.4 l 0.8 1.4 a 12.8 12.8 0 0 0 3.3 -2.7 L 72.4 188.5 a 11.2 11.2 0 0 0 2.4 -4.4 l 1.5 0.4 l 0 0 a 12.8 12.8 0 0 0 0.5 -3.5 c 0 -0.3 0 -0.5 0 -0.8 Z M 61.2 190.9 h 0 l 0.1 -0.3 Z m 9.3 -8 a 6.8 6.8 0 1 1 0.3 -1.9 A 6.8 6.8 0 0 1 70.5 182.9 Z" transform="translate(-51.1,-30.3)" fill="none" stroke="#99a6d6" stroke-miterlimit="10" stroke-width="0.541"/>
            <path id="Path_104" data-name="Path 104" d="M 296.6 88.6 a 5.7 5.7 0 0 0 -0.7 -2.5 l 0.7 -0.4 a 6.6 6.6 0 0 0 -1.4 -1.7 l -0.5 0.6 a 5.7 5.7 0 0 0 -2.2 -1.2 l 0.2 -0.8 l 0 0 a 6.6 6.6 0 0 0 -1.8 -0.3 c -0.1 0 -0.3 0 -0.4 0 l 0 0.8 a 5.8 5.8 0 0 0 -2.5 0.7 l -0.4 -0.7 a 6.6 6.6 0 0 0 -1.7 1.4 l 0.6 0.5 a 5.8 5.8 0 0 0 -1.2 2.2 l -0.8 -0.2 l 0 0 a 6.6 6.6 0 0 0 -0.3 1.8 c 0 0.1 0 0.3 0 0.4 l 0.8 0 a 5.8 5.8 0 0 0 0.7 2.5 l -0.7 0.4 a 6.6 6.6 0 0 0 1.4 1.7 l 0.5 -0.6 a 5.7 5.7 0 0 0 2.2 1.2 l -0.2 0.8 l 0 0 a 6.6 6.6 0 0 0 1.8 0.3 c 0.1 0 0.3 0 0.4 0 l -0.1 -0.8 a 5.8 5.8 0 0 0 2.5 -0.7 l 0.4 0.7 a 6.6 6.6 0 0 0 1.7 -1.4 l -0.6 -0.5 a 5.7 5.7 0 0 0 1.2 -2.3 l 0.8 0.2 V 90.7 a 6.5 6.5 0 0 0 0.3 -1.8 c 0 -0.1 0 -0.3 0 -0.4 Z m -7.2 5.4 h 0 l 0 -0.1 Z m 4.8 -4.1 a 3.5 3.5 0 0 1 -3.4 2.5 a 3.5 3.5 0 0 1 -1 -0.1 a 3.5 3.5 0 1 1 4.3 -2.4 Z" transform="translate(6.7,-51.6)" fill="none" stroke="#99a6d6" stroke-miterlimit="10" stroke-width="0.541"/>
            <path id="Path_105" data-name="Path 105" d="M 171.3 99.8 a 5.8 5.8 0 0 0 -0.7 -2.5 l 0.7 -0.4 a 6.6 6.6 0 0 0 -1.4 -1.7 l -0.5 0.6 a 5.7 5.7 0 0 0 -2.2 -1.2 l 0.2 -0.8 l 0 0 a 6.6 6.6 0 0 0 -1.8 -0.3 c -0.1 0 -0.3 0 -0.4 0 l 0 0.8 a 5.8 5.8 0 0 0 -2.5 0.7 l -0.4 -0.7 a 6.6 6.6 0 0 0 -1.7 1.4 l 0.6 0.5 a 5.7 5.7 0 0 0 -1.2 2.2 l -0.8 -0.2 l 0 0 a 6.6 6.6 0 0 0 -0.3 1.8 c 0 0.1 0 0.3 0 0.4 l 0.8 0 a 5.8 5.8 0 0 0 0.7 2.5 l -0.7 0.4 a 6.6 6.6 0 0 0 1.4 1.7 l 0.5 -0.6 a 5.8 5.8 0 0 0 2.2 1.2 l -0.2 0.8 l 0 0 a 6.6 6.6 0 0 0 1.8 0.3 q 0.2 0 0.4 0 l -0.1 -0.8 a 5.8 5.8 0 0 0 2.5 -0.7 l 0.4 0.7 a 6.6 6.6 0 0 0 1.7 -1.4 l -0.6 -0.5 a 5.7 5.7 0 0 0 1.2 -2.2 l 0.8 0.2 v 0 a 6.6 6.6 0 0 0 0.3 -1.8 c 0 -0.1 0 -0.3 0 -0.4 Z m -7.2 5.4 h 0 l 0 -0.1 Z m 4.8 -4.1 a 3.5 3.5 0 0 1 -6.8 -0.9 a 3.5 3.5 0 0 1 0.1 -1 a 3.5 3.5 0 1 1 6.7 1.9 Z" transform="translate(-24.4,-48.8)" fill="none" stroke="#99a6d6" stroke-miterlimit="10" stroke-width="0.541"/>
            <path id="Path_106" data-name="Path 106" d="M 188.7 170.9 a 5.8 5.8 0 0 0 -0.7 -2.5 l 0.7 -0.4 a 6.6 6.6 0 0 0 -1.4 -1.7 l -0.5 0.6 a 5.7 5.7 0 0 0 -2.2 -1.2 l 0.2 -0.8 l 0 0 a 6.6 6.6 0 0 0 -1.8 -0.3 c -0.1 0 -0.3 0 -0.4 0 l 0 0.8 a 5.8 5.8 0 0 0 -2.5 0.7 l -0.4 -0.7 a 6.6 6.6 0 0 0 -1.7 1.4 l 0.6 0.5 a 5.7 5.7 0 0 0 -1.2 2.2 l -0.8 -0.2 l 0 0 a 6.6 6.6 0 0 0 -0.3 1.8 c 0 0.1 0 0.3 0 0.4 l 0.8 0 a 5.8 5.8 0 0 0 0.7 2.5 l -0.7 0.4 a 6.6 6.6 0 0 0 1.4 1.7 l 0.5 -0.6 a 5.7 5.7 0 0 0 2.2 1.2 l -0.2 0.8 l 0 0 a 6.6 6.6 0 0 0 1.8 0.3 c 0.1 0 0.3 0 0.4 0 l -0.1 -0.8 a 5.8 5.8 0 0 0 2.5 -0.7 l 0.4 0.7 a 6.6 6.6 0 0 0 1.7 -1.4 l -0.6 -0.5 a 5.8 5.8 0 0 0 1.2 -2.3 l 0.8 0.2 v 0 a 6.6 6.6 0 0 0 0.3 -1.8 c 0 -0.1 0 -0.3 0 -0.4 Z m -7.2 5.4 h 0 l 0 -0.1 Z m 4.8 -4.1 a 3.5 3.5 0 1 1 0.1 -1 A 3.5 3.5 0 0 1 186.3 172.2 Z" transform="translate(-20.1,-31.2)" fill="none" stroke="#99a6d6" stroke-miterlimit="10" stroke-width="0.541"/>
            <path id="Path_107" data-name="Path 107" d="M 399.4 161.6 a 4.7 4.7 0 0 0 -0.6 -2 l 0.6 -0.3 a 5.4 5.4 0 0 0 -1.1 -1.4 l -0.4 0.5 A 4.7 4.7 0 0 0 396 157.3 l 0.2 -0.6 l 0 0 a 5.4 5.4 0 0 0 -1.5 -0.2 c -0.1 0 -0.2 0 -0.3 0 l 0 0.7 a 4.8 4.8 0 0 0 -2 0.6 l -0.3 -0.6 a 5.4 5.4 0 0 0 -1.4 1.1 l 0.5 0.4 a 4.7 4.7 0 0 0 -1 1.8 l -0.6 -0.2 l 0 0 a 5.4 5.4 0 0 0 -0.2 1.5 c 0 0.1 0 0.2 0 0.3 l 0.7 0 a 4.7 4.7 0 0 0 0.6 2 l -0.6 0.3 a 5.4 5.4 0 0 0 1.1 1.4 l 0.4 -0.5 a 4.7 4.7 0 0 0 1.8 1 l -0.2 0.6 l 0 0 a 5.4 5.4 0 0 0 1.5 0.2 c 0.1 0 0.2 0 0.3 0 l 0 -0.7 a 4.7 4.7 0 0 0 2 -0.6 l 0.3 0.6 a 5.4 5.4 0 0 0 1.4 -1.1 l -0.5 -0.4 a 4.7 4.7 0 0 0 1 -1.9 l 0.6 0.2 v 0 a 5.4 5.4 0 0 0 0.2 -1.5 c 0 -0.1 0 -0.2 0 -0.3 Z m -5.9 4.4 h 0 l 0 -0.1 Z m 3.9 -3.4 a 2.9 2.9 0 0 1 -2.8 2.1 a 2.9 2.9 0 0 1 -0.8 -0.1 a 2.9 2.9 0 0 1 0.8 -5.6 a 2.8 2.8 0 0 1 0.8 0.1 a 2.9 2.9 0 0 1 2 3.5 Z" transform="translate(32.8,-33.2)" fill="none" stroke="#99a6d6" stroke-miterlimit="10" stroke-width="0.541"/>
            <path id="Path_108" data-name="Path 108" d="M 477.1 196.9 a 4.7 4.7 0 0 0 -0.6 -2 l 0.6 -0.3 a 5.4 5.4 0 0 0 -1.1 -1.4 l -0.4 0.5 a 4.7 4.7 0 0 0 -1.8 -1 l 0.2 -0.6 l 0 0 a 5.4 5.4 0 0 0 -1.5 -0.2 c -0.1 0 -0.2 0 -0.3 0 l 0 0.7 a 4.7 4.7 0 0 0 -2 0.6 l -0.3 -0.6 a 5.4 5.4 0 0 0 -1.4 1.1 l 0.5 0.4 a 4.7 4.7 0 0 0 -1 1.8 l -0.6 -0.2 l 0 0 a 5.4 5.4 0 0 0 -0.2 1.5 c 0 0.1 0 0.2 0 0.3 l 0.7 0 a 4.7 4.7 0 0 0 0.6 2 l -0.6 0.3 a 5.4 5.4 0 0 0 1.1 1.4 l 0.4 -0.5 a 4.7 4.7 0 0 0 1.8 1 l -0.2 0.6 l 0 0 a 5.4 5.4 0 0 0 1.5 0.2 c 0.1 0 0.2 0 0.3 0 l 0 -0.7 a 4.7 4.7 0 0 0 2 -0.6 l 0.3 0.6 a 5.4 5.4 0 0 0 1.4 -1.1 l -0.5 -0.4 a 4.7 4.7 0 0 0 1 -1.9 l 0.6 0.2 v 0 a 5.4 5.4 0 0 0 0.2 -1.5 c 0 -0.1 0 -0.2 0 -0.3 Z m -5.9 4.4 h 0 l 0 -0.1 Z m 3.9 -3.4 a 2.9 2.9 0 0 1 -2.8 2.1 a 2.8 2.8 0 0 1 -0.8 -0.1 a 2.9 2.9 0 1 1 3.5 -2 Z" transform="translate(52.1,-24.5)" fill="none" stroke="#99a6d6" stroke-miterlimit="10" stroke-width="0.541"/>
            <path id="Path_109" data-name="Path 109" d="M 368.2 213.5 a 7 7 0 0 0 -0.9 -3 l 0.9 -0.5 a 8.1 8.1 0 0 0 -1.7 -2.1 l -0.7 0.7 a 7 7 0 0 0 -2.7 -1.5 l 0.3 -1 l 0 0 a 8 8 0 0 0 -2.2 -0.3 c -0.2 0 -0.3 0 -0.5 0 l 0.1 1 a 7 7 0 0 0 -3 0.9 l -0.5 -0.9 a 8.1 8.1 0 0 0 -2.1 1.7 l 0.7 0.7 a 7 7 0 0 0 -1.5 2.7 l -1 -0.3 l 0 0 a 8 8 0 0 0 -0.3 2.2 c 0 0.2 0 0.3 0 0.5 l 1 -0.1 a 7 7 0 0 0 0.9 3 l -0.9 0.5 a 8 8 0 0 0 1.7 2.1 l 0.7 -0.7 a 7 7 0 0 0 2.7 1.5 l -0.3 1 l 0 0 a 8 8 0 0 0 2.2 0.3 c 0.2 0 0.3 0 0.5 0 l -0.1 -1 a 7 7 0 0 0 3 -0.9 l 0.5 0.9 a 8 8 0 0 0 2.1 -1.7 l -0.7 -0.7 a 7 7 0 0 0 1.5 -2.7 l 1 0.3 l 0 0 a 8 8 0 0 0 0.3 -2.2 c 0 -0.2 0 -0.3 0 -0.5 Z m -8.8 6.6 h 0 l 0.1 -0.2 Z m 5.8 -5 a 4.2 4.2 0 1 1 0.2 -1.2 A 4.3 4.3 0 0 1 365.3 215.1 Z" transform="translate(23.8,-21)" fill="none" stroke="#99a6d6" stroke-miterlimit="10" stroke-width="0.262"/>
            <path id="Path_110" data-name="Path 110" d="M 232.6 121.4 a 5.4 5.4 0 1 1 -5.4 -5.4 A 5.4 5.4 0 0 1 232.6 121.4 Z" transform="translate(-8.8,-43.3)" fill="none" stroke="#99a6d6" stroke-miterlimit="10" stroke-width="0.541"/>
            <path id="Path_111" data-name="Path 111" d="M 323.1 61.1 a 3.4 3.4 0 1 1 -3.4 -3.4 A 3.4 3.4 0 0 1 323.1 61.1 Z" transform="translate(14.7,-57.7)" fill="none" stroke="#99a6d6" stroke-miterlimit="10" stroke-width="0.541"/>
            <path id="Path_112" data-name="Path 112" d="M 415.5 127.5 a 3.4 3.4 0 1 1 -3.4 -3.4 A 3.4 3.4 0 0 1 415.5 127.5 Z" transform="translate(37.6,-41.3)" fill="none" stroke="#99a6d6" stroke-miterlimit="10" stroke-width="0.541"/>
            <path id="Path_113" data-name="Path 113" d="M 428.5 189.1 a 3.4 3.4 0 1 1 -3.4 -3.4 A 3.4 3.4 0 0 1 428.5 189.1 Z" transform="translate(40.8,-25.9)" fill="none" stroke="#99a6d6" stroke-miterlimit="10" stroke-width="0.541"/>
            <path d="M 6.8 3.4 A 3.4 3.4 0 0 1 3.4 6.8 A 3.4 3.4 0 0 1 0 3.4 A 3.4 3.4 0 0 1 3.4 0 A 3.4 3.4 0 0 1 6.8 3.4 Z" id="Ellipse_11" data-name="Ellipse 11" transform="translate(309.9,74.8)" fill="none" stroke="#99a6d6" stroke-miterlimit="10" stroke-width="0.541"/>
            <path id="Path_114" data-name="Path 114" d="M 198 71.9 a 3.4 3.4 0 1 1 -3.4 -3.4 A 3.4 3.4 0 0 1 198 71.9 Z" transform="translate(-16.4,-55)" fill="none" stroke="#99a6d6" stroke-miterlimit="10" stroke-width="0.541"/>
            <path id="Path_115" data-name="Path 115" d="M 97 152.4 a 3.4 3.4 0 1 1 -3.4 -3.4 A 3.4 3.4 0 0 1 97 152.4 Z" transform="translate(-41.4,-35.1)" fill="none" stroke="#99a6d6" stroke-miterlimit="10" stroke-width="0.541"/>
            <g id="Group_122" data-name="Group 122" transform="translate(256.3,6.9)">
                <path d="M 0 0 L 0 6.523" id="Line_10" data-name="Line 10" transform="translate(3.262)" fill="none" stroke="#99a6d6" stroke-miterlimit="10" stroke-width="0.541"/>
                <path d="M 6.523 0 L 0 0" id="Line_11" data-name="Line 11" transform="translate(0 3.262)" fill="none" stroke="#99a6d6" stroke-miterlimit="10" stroke-width="0.541"/>
            </g>
            <g id="Group_123" data-name="Group 123" transform="translate(61.9,198.1)">
                <path d="M 0 0 L 0 6.523" id="Line_12" data-name="Line 12" transform="translate(3.262)" fill="none" stroke="#99a6d6" stroke-miterlimit="10" stroke-width="0.541"/>
                <path d="M 6.523 0 L 0 0" id="Line_13" data-name="Line 13" transform="translate(0 3.262)" fill="none" stroke="#99a6d6" stroke-miterlimit="10" stroke-width="0.541"/>
            </g>
            <g id="Group_124" data-name="Group 124" transform="translate(170.8,67.2)">
                <path d="M 0 0 L 0 6.523" id="Line_14" data-name="Line 14" transform="translate(3.262)" fill="none" stroke="#99a6d6" stroke-miterlimit="10" stroke-width="0.541"/>
                <path d="M 6.523 0 L 0 0" id="Line_15" data-name="Line 15" transform="translate(0 3.262)" fill="none" stroke="#99a6d6" stroke-miterlimit="10" stroke-width="0.541"/>
            </g>
            <g id="Group_125" data-name="Group 125" transform="translate(96.5,140.2)">
                <path d="M 0 0 L 0 6.523" id="Line_16" data-name="Line 16" transform="translate(3.262 0)" fill="none" stroke="#99a6d6" stroke-miterlimit="10" stroke-width="0.541"/>
                <path d="M 6.523 0 L 0 0" id="Line_17" data-name="Line 17" transform="translate(0 3.262)" fill="none" stroke="#99a6d6" stroke-miterlimit="10" stroke-width="0.541"/>
            </g>
            <g id="Group_126" data-name="Group 126" transform="translate(24.7,73.4)">
                <path d="M 0 0 L 0 6.523" id="Line_18" data-name="Line 18" transform="translate(3.262)" fill="none" stroke="#99a6d6" stroke-miterlimit="10" stroke-width="0.541"/>
                <path d="M 6.523 0 L 0 0" id="Line_19" data-name="Line 19" transform="translate(0 3.262)" fill="none" stroke="#99a6d6" stroke-miterlimit="10" stroke-width="0.541"/>
            </g>
        </g>
    </g></g><g transform="matrix(1.052132248878479, 0, 0, 1.052132248878479, -507.96902465820324, 452.47676317347475)"><g><path class="st1" d="M1016.7,124.4l-5-12c0,0,11.8-26.5,10.7-27.5l-15.5-15.2c-1.1-1-27.6,11-27.6,11L967,75.8&#10;&#9;c0,0-10.8-26.9-12.3-26.9h-21.9c-1.5,0-11.5,26.9-11.5,26.9L909,80.8c0,0-27.1-11.5-28.1-10.5l-15.5,15.2c-1.1,1,11.3,27,11.3,27&#10;&#9;l-5,12c0,0-27.4,10.6-27.4,12v21.5c0,1.5,27.5,11.3,27.5,11.3l5,12c0,0-11.7,26.5-10.7,27.5l15.5,15.2c1.1,1,27.6-11.1,27.6-11.1&#10;&#9;l12.2,5c0,0,10.8,26.8,12.3,26.8h21.9c1.5,0,11.5-26.9,11.5-26.9l12.2-5c0,0,27,11.5,28.1,10.5l15.5-15.2c1.1-1.1-11.3-27-11.3-27&#10;&#9;l5-12c0,0,27.4-10.6,27.4-12v-21.5C1044.2,134.2,1016.7,124.4,1016.7,124.4z M976.3,146.9c0,17.3-14.4,31.4-32.1,31.4&#10;&#9;c-17.7,0-32.1-14.1-32.1-31.4c0-17.3,14.4-31.4,32.1-31.4C961.9,115.5,976.3,129.6,976.3,146.9z" style="fill: rgb(10, 99, 115); opacity: 1;" transform="matrix(1.0160671472549438, 0, 0, 1.0160671472549438, -55.13322710766283, 2.464559316635132)"/><path id="Path_15" data-name="Path 15" d="M 214.2 328.7 v 11.4 H 112.5 a 9.6 9.6 0 0 1 7.5 -7.8 c 4.9 -0.9 8.4 2.7 8.7 3 c 0.2 -0.8 2.4 -7.7 9.3 -10.2 a 14.7 14.7 0 0 1 9.6 0 a 6.8 6.8 0 0 1 8.4 -9 a 13.5 13.5 0 0 1 24.5 4.2 a 6.8 6.8 0 0 1 12.3 1.8 a 12.5 12.5 0 0 1 21.4 6.5 Z" transform="matrix(1.9987552165985107, 0, 0, 1.9987552165985107, 589.7453727621092, -419.8605842691407)" fill="#99a6d6"/></g></g><g transform="matrix(2.3821096420288086, 0, 0, 2.3821096420288086, 416.9629049250675, -485.1269995793401)"><g transform="matrix(1, 0, 0, 1, 0, 0)">
		
		<g transform="matrix(1, 0, 0, 1, -8.765562526750045, 24.10529193444748)">
			<path class="st1" d="M128.5,340.8c0,27-7,56.9-15.7,56.9c-8.7,0-15.7-29.8-15.7-56.9c0-18,7-24.1,15.7-24.1&#10;&#9;&#9;&#9;&#9;C121.5,316.7,128.5,322.8,128.5,340.8z" style="fill: rgb(10, 99, 115); stroke: rgb(10, 99, 115); stroke-width: 2; stroke-linecap: round; stroke-linejoin: round; stroke-miterlimit: 10; stroke-opacity: 1;"/>
			<path d="M 125.300003 423.700012 A 12.5 12.5 0 0 1 112.800003 436.200012 A 12.5 12.5 0 0 1 100.300003 423.700012 A 12.5 12.5 0 0 1 112.800003 411.200012 A 12.5 12.5 0 0 1 125.300003 423.700012 Z" class="st1" style="fill: rgb(10, 99, 115); stroke: rgb(10, 99, 115); stroke-width: 2; stroke-linecap: round; stroke-linejoin: round; stroke-miterlimit: 10; stroke-opacity: 1;"/>
		</g>
	</g></g><g transform="matrix(0.3961375653743744, 0, 0, 0.3961375653743744, 794.3380559756292, 519.8668707042884)"><path d="M418.40471,238.996l28.09761-3.19195,4.06288,15.79655-29.82661,2.31774c-.63577,.65623-1.37608,1.23239-2.21704,1.69778-4.57383,2.5312-10.33364,.87532-12.86484-3.69851-2.5312-4.57383-.87532-10.33364,3.69851-12.86484,2.91694-1.61426,6.31294-1.51921,9.0495-.05677Z" fill="#ffb6b6"/><path d="M432.78515,256.06821c-.73483,0-1.19059-.0451-1.32736-.1412-1.93947-1.36247-1.84078-16.80656-1.80123-19.88895l.00407-.31419,69.78264-12.13622,52.48225-88.87576,.02883-.03031c6.81792-7.25409,16.41401-10.89092,26.32651-9.97719,9.91324,.913,18.68283,6.24166,24.06102,14.61906,9.1906,14.31596,5.59701,33.34736-8.1815,43.32602l-84.48931,64.35307-.09906,.01331c-11.79468,1.5983-67.32494,9.05162-76.78685,9.05236Z" fill="#0f857d"/></g><g transform="matrix(0.3961375653743744, 0, 0, 0.3961375653743744, 794.3380559756292, 519.8668707042884)"><path d="M 511.7834777832031 492.30804443359375 L 499.8018493652344 494.8362121582031 L 484.1312255859375 448.7998962402344 L 501.81280517578125 445.0679016113281 L 511.7834777832031 492.30804443359375 Z" fill="#ffb6b6"/><path d="M477.6602,519.74593c.62694,2.95652,3.52853,4.84771,6.4865,4.22777l23.81957-5.0294,2.30721-9.35214,3.39325,8.1439,8.98907-1.8912-8.91555-29.74691-3.16686,.47864-12.92381,1.92165-4.16776,.62804,1.80956,8.5733-16.25079,17.15394c-1.23562,1.30516-1.75162,3.13384-1.3804,4.89242Z" fill="#2f2e41"/></g><g transform="matrix(0.3961375653743744, 0, 0, 0.3961375653743744, 794.3380559756292, 519.8668707042884)"><path d="M 744.3239135742188 489.5254211425781 L 746.3485717773438 501.6023254394531 L 699.6969604492188 515.3331909179688 L 696.7079467773438 497.5109558105469 L 744.3239135742188 489.5254211425781 Z" fill="#ffb6b6"/><path d="M770.31016,524.76671c2.98017-.5027,4.99109-3.32263,4.49544-6.30395l-4.02847-24.00912-9.24742-2.69645,8.27873-3.04957-1.51347-9.06032-30.09387,7.66323,.34573,3.18412,1.37928,12.99289,.45313,4.19038,8.6415-1.4493,16.45904,16.95423c1.25232,1.28914,3.05781,1.8812,4.83039,1.58387Z" fill="#2f2e41"/></g><path d="M567.71893,278.7397l-2.60168,27.17496s-81.54841-18.11664-119.92324-7.11725l-7.33832,2.62785c-6.07918,2.17695-10.84312,7.08777-12.55339,13.28582l-.03407,.12465v.00002c-1.81839,6.71873-.89129,13.88021,2.57896,19.92143l11.65053,22.40768,40.96035,108.25277h32.3418s-10.47011-76.45825-21.65135-114.85839l95.43262,29.11602s49.43199-1.29405,40.3261-50.46777c-9.10589-49.17373-7.80505-57.58502-7.80505-57.58502l-51.38325,7.11725Z" fill="#2f2e41" transform="matrix(0.3961375653743744, 0, 0, 0.3961375653743744, 794.3380559756292, 519.8668707042884)"/><path d="M553.7443,352.71338l27.1598,3.8999s-20.09074,93.56916-10.90327,132.23099l-.34792,6.5008c1.89168,6.14566,1.29292,19.4439,7.43348,21.44313l.12351,.03988h.00002c6.65812,2.13186,19.19273,6.09925,25.42647,2.94347l18.5443,4.69302,102.63358-2.53098-7.57012-28.76647s-48.00879-4.70992-101.87657-14.88031l37.9199-129.17642c4.03239-11.12729,3.49159-23.50799-1.96434-34.01083-5.95373-11.46113-18.1343-22.0887-43.04164-18.75446-49.81468,6.66848-58.1973,4.96897-58.1973,4.96897l4.66011,51.39929Z" fill="#2f2e41" transform="matrix(0.3961375653743744, 0, 0, 0.3961375653743744, 794.3380559756292, 519.8668707042884)"/><path d="M647.67612,309.47307c-34.99283,46.74477-55.50512,28.75621-98.41161-6.0561,0,0,1.06284,13.07735-2.27104-11.35519-1.1328-8.30176-10.41712-26.9402-9.84116-35.57958,2.27104-34.06556-15.89726-41.63568-15.89726-41.63568,0,0-15.89726-40.12166,9.08415-56.01891l18.1683-30.28049-4.92058-16.40392,38.98614-13.11956,11.2577,15.23101c17.86663,24.1725,28.51423,52.91494,30.70778,82.89352v.00006c.78744,10.76156,.4772,21.57533-.92591,32.27405l-3.94597,30.08799c18.36296,15.91685,27.58475,32.5805,28.00946,49.96282Z" fill="#0f857d" transform="matrix(0.3961375653743744, 0, 0, 0.3961375653743744, 794.3380559756292, 519.8668707042884)"/><g transform="matrix(0.3961375653743744, 0, 0, 0.3961375653743744, 794.3380559756292, 519.8668707042884)"><path d="M181.98979,158.37331l-55.55433,24.16546c-3.44923,1.50037-7.47591-.08508-8.97628-3.53431-16.68392-18.27392-25.68958-39.37376-27.46308-63.13529-1.50037-3.44923,.08509-7.47592,3.53432-8.97629l55.55433-24.16546c3.44923-1.50037,7.47591,.08509,8.97628,3.53432l27.46308,63.13529c1.50037,3.44923-.08509,7.47591-3.53432,8.97628Z" fill="#e6e6e6"/><path d="M106.24409,103.57896c-8.99922,3.91455-13.12116,14.38324-9.20661,23.38246l21.70276,49.89278c1.37681,3.16517,5.05881,4.61492,8.22398,3.23811l30.72164-13.36354c15.40027-6.69893,22.4541-24.61388,15.75517-40.01415l-16.66119-38.30266c-1.37681-3.16517-5.05881-4.61492-8.22398-3.23811l-42.31177,18.40511Z" fill="#fff"/><g><path d="M143.03711,109.39351l-26.0098,11.31395c-.65573,.28523-1.42137-.01623-1.7066-.67196s.01634-1.42112,.67207-1.70636l26.0098-11.31395c.65573-.28523,1.42101,.01609,1.70625,.67182s-.01598,1.42126-.67171,1.7065Z" fill="#e6e6e6"/><path d="M154.06772,134.75194l-26.0098,11.31395c-.65573,.28523-1.42137-.01623-1.7066-.67196s.01634-1.42112,.67207-1.70636l26.0098-11.31395c.65573-.28523,1.42101,.01609,1.70625,.67182s-.01598,1.42126-.67171,1.7065Z" fill="#e6e6e6"/><path d="M162.51317,116.00985l-53.92407,23.45632c-.65573,.28523-1.42137-.01623-1.7066-.67196s.01634-1.42112,.67207-1.70636l53.92407-23.45632c.65573-.28523,1.42101,.01609,1.70625,.67182s-.01598,1.42126-.67171,1.7065Z" fill="#e6e6e6"/></g><path d="M173.14586,138.71484l-22.50058,9.78748c-.65573,.28523-1.42137-.01623-1.7066-.67196s.01634-1.42112,.67207-1.70636l22.50058-9.78748c.65573-.28523,1.42101,.01609,1.70625,.67182s-.01598,1.42126-.67171,1.7065Z" fill="#e6e6e6"/></g><g transform="matrix(0.3961375653743744, 0, 0, 0.3961375653743744, 794.3380559756292, 519.8668707042884)"><path d="M130.17086,335.86397h-60.58262c-3.76142,0-6.82148-3.06005-6.82148-6.82147-8.00999-23.41216-7.8518-46.35296,0-68.84973,0-3.76142,3.06006-6.82148,6.82148-6.82148h60.58262c3.76142,0,6.82147,3.06006,6.82147,6.82148v68.84973c0,3.76142-3.06006,6.82147-6.82148,6.82147Z" fill="#e6e6e6"/><path d="M82.56857,255.4037c-9.81375,0-17.76937,7.95562-17.76937,17.76937v54.40863c0,3.45165,2.79811,6.24977,6.24976,6.24977h33.50229c16.79417,0,30.40853-13.61436,30.40853-30.40853v-41.76947c0-3.45165-2.79811-6.24977-6.24976-6.24977h-46.14145Z" fill="#fff"/><g><path d="M113.98849,275.41181h-28.36398c-.71508,0-1.29692-.58185-1.29692-1.29693s.58185-1.29665,1.29692-1.29665h28.36398c.71508,0,1.29665,.58158,1.29665,1.29666s-.58158,1.29692-1.29665,1.29692Z" fill="#e6e6e6"/><path d="M113.98849,303.06546h-28.36398c-.71508,0-1.29692-.58185-1.29692-1.29693s.58185-1.29665,1.29692-1.29665h28.36398c.71508,0,1.29665,.58158,1.29665,1.29666s-.58158,1.29692-1.29665,1.29692Z" fill="#e6e6e6"/><path d="M129.2089,289.2477h-58.8048c-.71508,0-1.29692-.58185-1.29692-1.29693s.58185-1.29665,1.29692-1.29665h58.8048c.71508,0,1.29665,.58158,1.29665,1.29666s-.58158,1.29692-1.29665,1.29692Z" fill="#e6e6e6"/></g><path d="M129.90242,314.30942h-24.53714c-.71508,0-1.29692-.58185-1.29692-1.29693s.58185-1.29665,1.29692-1.29665h24.53714c.71508,0,1.29665,.58158,1.29665,1.29666s-.58158,1.29692-1.29665,1.29692Z" fill="#e6e6e6"/></g><g transform="matrix(0.3961375653743744, 0, 0, 0.3961375653743744, 794.3380559756292, 519.8668707042884)"><path d="M532.00964,447.77324l-50.61816-22.34648c-3.14275-1.38744-4.57078-5.0729-3.18334-8.21566,1.94327-22.51596,10.53738-41.62517,25.39589-57.52552,1.38744-3.14275,5.07292-4.57077,8.21567-3.18333l50.61816,22.34648c3.14275,1.38744,4.57077,5.07291,3.18333,8.21566l-25.39589,57.52552c-1.38744,3.14275-5.07291,4.57077-8.21566,3.18333Z" fill="#e6e6e6"/><path d="M521.91538,362.98829c-8.19961-3.6199-17.78122,.0927-21.40112,8.29231l-20.06915,45.45965c-1.27317,2.88393,.0326,6.25394,2.91654,7.52711l27.99193,12.35764c14.03191,6.19469,30.42881-.15863,36.6235-14.19054l15.40707-34.89934c1.27317-2.88393-.0326-6.25394-2.91654-7.52711l-38.55224-17.01972Z" fill="#fff"/><g><path d="M540.78725,391.29506l-23.69875-10.46233c-.59746-.26376-.86899-.96453-.60523-1.56199s.96443-.86876,1.56189-.605l23.69875,10.46233c.59746,.26376,.86886,.9642,.6051,1.56167s-.9643,.86909-1.56177,.60533Z" fill="#e6e6e6"/><path d="M530.58694,414.40032l-23.69875-10.46233c-.59746-.26376-.86899-.96453-.60523-1.56199s.96443-.86876,1.56189-.605l23.69875,10.46233c.59746,.26376,.86886,.9642,.6051,1.56167s-.9643,.86909-1.56177,.60533Z" fill="#e6e6e6"/><path d="M548.40075,408.46946l-49.13275-21.69072c-.59746-.26376-.86899-.96453-.60523-1.56199s.96443-.86876,1.56189-.605l49.13275,21.69072c.59746,.26376,.86886,.9642,.6051,1.56167s-.9643,.86909-1.56177,.60533Z" fill="#e6e6e6"/></g><path d="M539.73596,429.66491l-20.50134-9.05076c-.59746-.26376-.86899-.96453-.60523-1.56199s.96443-.86876,1.56189-.605l20.50134,9.05076c.59746,.26376,.86886,.9642,.6051,1.56167s-.9643,.86909-1.56177,.60533Z" fill="#e6e6e6"/></g><g transform="matrix(0.3961375653743744, 0, 0, 0.3961375653743744, 794.3380559756292, 519.8668707042884)"><path d="M135.144,160.97523h-60.58262c-3.76142,0-6.82148-3.06005-6.82148-6.82147-8.00999-23.41216-7.8518-46.35296,0-68.84973,0-3.76142,3.06006-6.82148,6.82148-6.82148h60.58262c3.76142,0,6.82147,3.06006,6.82147,6.82148v68.84973c0,3.76142-3.06006,6.82147-6.82148,6.82147Z" fill="#3f3d56"/><path d="M87.54171,80.51496c-9.81375,0-17.76937,7.95562-17.76937,17.76937v54.40863c0,3.45165,2.79811,6.24977,6.24976,6.24977h33.50229c16.79417,0,30.40853-13.61436,30.40853-30.40853v-41.76947c0-3.45165-2.79811-6.24977-6.24976-6.24977h-46.14145Z" fill="#0f857d"/><g><path d="M118.96163,100.52307h-28.36398c-.71508,0-1.29692-.58185-1.29692-1.29693s.58185-1.29665,1.29692-1.29665h28.36398c.71508,0,1.29665,.58158,1.29665,1.29666s-.58158,1.29692-1.29665,1.29692Z" fill="#3f3d56"/><path d="M118.96163,128.17672h-28.36398c-.71508,0-1.29692-.58185-1.29692-1.29693s.58185-1.29665,1.29692-1.29665h28.36398c.71508,0,1.29665,.58158,1.29665,1.29666s-.58158,1.29692-1.29665,1.29692Z" fill="#3f3d56"/><path d="M134.18204,114.35896h-58.8048c-.71508,0-1.29692-.58185-1.29692-1.29693s.58185-1.29665,1.29692-1.29665h58.8048c.71508,0,1.29665,.58158,1.29665,1.29666s-.58158,1.29692-1.29665,1.29692Z" fill="#3f3d56"/></g><path d="M134.87556,139.42068h-24.53714c-.71508,0-1.29692-.58185-1.29692-1.29693s.58185-1.29665,1.29692-1.29665h24.53714c.71508,0,1.29665,.58158,1.29665,1.29666s-.58158,1.29692-1.29665,1.29692Z" fill="#3f3d56"/></g><g transform="matrix(0.3961375653743744, 0, 0, 0.3961375653743744, 794.3380559756292, 519.8668707042884)"><path d="M488.95686,240.34905l-44.90175,32.33259c-2.78784,2.00745-6.68897,1.37259-8.69642-1.41525-18.43167-13.0774-30.55779-30.16475-36.7447-51.02905-2.00745-2.78784-1.37258-6.68898,1.41526-8.69643l44.90175-32.33259c2.78784-2.00745,6.68897-1.37258,8.69642,1.41526l36.7447,51.02905c2.00745,2.78784,1.37258,6.68897-1.41526,8.69642Z" fill="#3f3d56"/><path d="M410.73451,206.11974c-7.27361,5.23754-8.92418,15.37984-3.68663,22.65345l29.03757,40.3258c1.84213,2.55824,5.40933,3.13877,7.96758,1.29665l24.83074-17.87998c12.44726-8.96295,15.27185-26.31935,6.3089-38.76661l-22.29212-30.95809c-1.84213-2.55824-5.40933-3.13877-7.96758-1.29665l-34.19845,24.62543Z" fill="#0f857d"/><g><path d="M444.70008,204.18043l-21.0224,15.13769c-.52999,.38163-1.27176,.26092-1.6534-.26907s-.26077-1.27156,.26922-1.6532l21.0224-15.13769c.52999-.38163,1.27142-.26097,1.65305,.26902s.26112,1.27162-.26887,1.65325Z" fill="#3f3d56"/><path d="M459.45867,224.67637l-21.0224,15.13769c-.52999,.38163-1.27176,.26092-1.6534-.26907s-.26077-1.27156,.26922-1.6532l21.0224-15.13769c.52999-.38163,1.27142-.26097,1.65305,.26902s.26112,1.27162-.26887,1.65325Z" fill="#3f3d56"/><path d="M463.36506,206.31207l-43.58409,31.38378c-.52999,.38163-1.27176,.26092-1.6534-.26907s-.26077-1.27156,.26922-1.6532l43.58409-31.38378c.52999-.38163,1.27142-.26097,1.65305,.26902s.26112,1.27162-.26887,1.65325Z" fill="#3f3d56"/></g><path d="M477.25437,224.51682l-18.18608,13.09533c-.52999,.38163-1.27176,.26092-1.6534-.26907s-.26077-1.27156,.26922-1.6532l18.18608-13.09533c.52999-.38163,1.27142-.26097,1.65305,.26902s.26112,1.27162-.26887,1.65325Z" fill="#3f3d56"/></g><g transform="matrix(0.3961375653743744, 0, 0, 0.3961375653743744, 794.3380559756292, 519.8668707042884)"><path d="M206.29529,506.22549v16.71612c0,1.03786-3.69189,1.8822-8.22997,1.8822-28.24634,2.21014-55.92398,2.16649-83.06592,0-4.53809,0-8.22999-.84434-8.22999-1.8822v-16.71612c0-1.03786,3.6919-1.8822,8.22998-1.8822h83.06592c4.53809,0,8.22998,.84434,8.22998,1.8822Z" fill="#e6e6e6"/><path d="M109.22148,519.36005c0,2.70784,9.5983,4.90297,21.43841,4.90297h65.643c4.16435,0,7.54023-.77206,7.54023-1.72445v-9.24405c0-4.63389-16.42547-8.39041-36.68733-8.39041h-50.39409c-4.16435,0-7.54023,.77206-7.54023,1.72445v12.73148Z" fill="#fff"/><g><path d="M133.36089,510.69058v7.82627c0,.19731-.70199,.35785-1.56471,.35785s-1.56439-.16054-1.56439-.35785v-7.82627c0-.19731,.70166-.35778,1.56439-.35778s1.56471,.16047,1.56471,.35778Z" fill="#e6e6e6"/><path d="M166.7245,510.69058v7.82627c0,.19731-.70199,.35785-1.56471,.35785s-1.56439-.16054-1.56439-.35785v-7.82627c0-.19731,.70166-.35778,1.56439-.35778s1.56471,.16047,1.56471,.35778Z" fill="#e6e6e6"/><path d="M150.05363,506.49092v16.22558c0,.19731-.70199,.35785-1.56472,.35785s-1.56439-.16054-1.56439-.35785v-16.22558c0-.19731,.70166-.35778,1.56439-.35778s1.56471,.16047,1.56471,.35778Z" fill="#e6e6e6"/></g><path d="M180.29013,506.29956v6.77035c0,.19731-.70199,.35785-1.56471,.35785s-1.56439-.16054-1.56439-.35785v-6.77035c0-.19731,.70166-.35778,1.56439-.35778s1.56471,.16047,1.56471,.35778Z" fill="#e6e6e6"/></g><g transform="matrix(0.3961375653743744, 0, 0, 0.3961375653743744, 794.3380559756292, 519.8668707042884)"><path d="M329.29529,506.22549v16.71612c0,1.03786-3.69189,1.8822-8.22997,1.8822-28.24634,2.21014-55.92398,2.16649-83.06592,0-4.53809,0-8.22999-.84434-8.22999-1.8822v-16.71612c0-1.03786,3.6919-1.8822,8.22998-1.8822h83.06592c4.53809,0,8.22998,.84434,8.22998,1.8822Z" fill="#e6e6e6"/><path d="M232.22148,519.36005c0,2.70784,9.5983,4.90297,21.43841,4.90297h65.643c4.16435,0,7.54023-.77206,7.54023-1.72445v-9.24405c0-4.63389-16.42547-8.39041-36.68733-8.39041h-50.39409c-4.16435,0-7.54023,.77206-7.54023,1.72445v12.73148Z" fill="#f2f2f2"/><g><path d="M256.36089,510.69058v7.82627c0,.19731-.70199,.35785-1.56471,.35785s-1.56439-.16054-1.56439-.35785v-7.82627c0-.19731,.70166-.35778,1.56439-.35778s1.56471,.16047,1.56471,.35778Z" fill="#e6e6e6"/><path d="M289.7245,510.69058v7.82627c0,.19731-.70199,.35785-1.56471,.35785s-1.56439-.16054-1.56439-.35785v-7.82627c0-.19731,.70166-.35778,1.56439-.35778s1.56471,.16047,1.56471,.35778Z" fill="#e6e6e6"/><path d="M273.05363,506.49092v16.22558c0,.19731-.70199,.35785-1.56472,.35785s-1.56439-.16054-1.56439-.35785v-16.22558c0-.19731,.70166-.35778,1.56439-.35778s1.56471,.16047,1.56471,.35778Z" fill="#e6e6e6"/></g><path d="M303.29013,506.29956v6.77035c0,.19731-.70199,.35785-1.56471,.35785s-1.56439-.16054-1.56439-.35785v-6.77035c0-.19731,.70166-.35778,1.56439-.35778s1.56471,.16047,1.56471,.35778Z" fill="#e6e6e6"/></g><g transform="matrix(0.3961375653743744, 0, 0, 0.3961375653743744, 794.3380559756292, 519.8668707042884)"><path d="M529.16552,288.94449v12.65431c0,.78567-2.7948,1.42485-6.23019,1.42485-21.38283,1.6731-42.33514,1.64006-62.88193,0-3.43539,0-6.2302-.63918-6.2302-1.42485v-12.65431c0-.78567,2.79481-1.42485,6.2302-1.42485h62.88193c3.43539,0,6.2302,.63917,6.2302,1.42485Z" fill="#e6e6e6"/><path d="M455.67945,298.88752c0,2.04987,7.26603,3.71161,16.22914,3.71161h49.69256c3.15247,0,5.70805-.58446,5.70805-1.30543v-6.99786c0-3.50791-12.43429-6.35164-27.77276-6.35164h-38.14895c-3.15247,0-5.70805,.58446-5.70805,1.30543v9.63789Z" fill="#f2f2f2"/><g><path d="M473.95328,292.32462v5.92458c0,.14936-.53141,.2709-1.18451,.2709s-1.18426-.12153-1.18426-.2709v-5.92458c0-.14936,.53117-.27084,1.18426-.27084s1.18451,.12148,1.18451,.27084Z" fill="#e6e6e6"/><path d="M499.20995,292.32462v5.92458c0,.14936-.53141,.2709-1.18451,.2709s-1.18426-.12153-1.18426-.2709v-5.92458c0-.14936,.53117-.27084,1.18426-.27084s1.18451,.12148,1.18451,.27084Z" fill="#e6e6e6"/><path d="M486.58989,289.14543v12.28297c0,.14936-.53141,.2709-1.18451,.2709s-1.18426-.12153-1.18426-.2709v-12.28297c0-.14936,.53117-.27084,1.18426-.27084s1.18451,.12148,1.18451,.27084Z" fill="#e6e6e6"/></g><path d="M509.47929,289.00056v5.12524c0,.14936-.53141,.2709-1.18451,.2709s-1.18426-.12153-1.18426-.2709v-5.12524c0-.14936,.53117-.27084,1.18426-.27084s1.18451,.12148,1.18451,.27084Z" fill="#e6e6e6"/></g><g transform="matrix(0.3961375653743744, 0, 0, 0.3961375653743744, 794.3380559756292, 519.8668707042884)"><path d="M507.70719,346.77195l20.47326-19.50666,12.77509,10.14076-22.3794,19.85348c-.1107,.90697-.35308,1.8132-.74257,2.6919-2.11834,4.77907-7.70985,6.93603-12.48892,4.81769-4.77907-2.11834-6.93603-7.70985-4.81769-12.48892,1.35096-3.04783,4.11573-5.02215,7.18023-5.50826Z" fill="#ffb6b6"/><path d="M529.47781,351.7012c-.58583,.4436-.9764,.68279-1.14345,.68873-2.3687,.08462-11.6133-12.2874-13.44254-14.76864l-.18643-.25294,48.30622-51.80168-11.81222-102.53662,.00469-.04157c1.05628-9.89899,6.51106-18.59134,14.96518-23.84686,8.45426-5.25655,18.66242-6.30243,28.00732-2.87043,15.96925,5.86489,24.59321,23.20661,19.63252,39.47968l-28.50852,102.30848-.07094,.07041c-8.43818,8.39442-48.20898,47.85889-55.75183,53.57144Z" fill="#0f857d"/></g><path d="M 116.228649 76.829208 A 9.11742 9.11742 0 0 1 107.111229 85.946629 A 9.11742 9.11742 0 0 1 97.993809 76.829208 A 9.11742 9.11742 0 0 1 107.111229 67.711788 A 9.11742 9.11742 0 0 1 116.228649 76.829208 Z" fill="#3f3d56" transform="matrix(0.3961375653743744, 0, 0, 0.3961375653743744, 794.3380559756292, 519.8668707042884)"/><path d="M 109.59779 253.375671 A 9.11742 9.11742 0 0 1 100.48037 262.493092 A 9.11742 9.11742 0 0 1 91.362949 253.375671 A 9.11742 9.11742 0 0 1 100.48037 244.258251 A 9.11742 9.11742 0 0 1 109.59779 253.375671 Z" fill="#f2f2f2" transform="matrix(0.3961375653743744, 0, 0, 0.3961375653743744, 794.3380559756292, 519.8668707042884)"/><path d="M 286.845703 121.343384 A 11 11 0 0 1 275.845703 132.343384 A 11 11 0 0 1 264.845703 121.343384 A 11 11 0 0 1 275.845703 110.343384 A 11 11 0 0 1 286.845703 121.343384 Z" fill="#f2f2f2" transform="matrix(0.3961375653743744, 0, 0, 0.3961375653743744, 794.3380559756292, 519.8668707042884)"/><g transform="matrix(0.3961375653743744, 0, 0, 0.3961375653743744, 794.3380559756292, 519.8668707042884)"><path d="M397.07426,177.40068c-.8958-10.24959-5.15132-20.04124-11.96184-27.74667-6.63443-7.5062-15.70252-12.65525-25.48162-14.75293-5.45895-1.17098-11.11392-1.39948-16.64225-.61069-1.32338,.18882-1.2881,2.28999,.0493,2.09917,9.40895-1.34249,19.1338,.29777,27.58827,4.64234,8.66574,4.45315,15.60153,11.69619,19.88606,20.43025,2.45018,4.9947,3.97856,10.44586,4.46292,15.98783,.11725,1.3415,2.2171,1.30008,2.09917-.0493h0Z" fill="#e6e6e6"/><path d="M345.31668,125.86278l-16.16239,7.97413c-.58787,.29004-.68444,1.24748-.18494,1.66038l15.30037,12.64762c1.03554,.856,2.49312-.65649,1.44947-1.5192l-15.30037-12.64762-.18494,1.66038,16.16239-7.97413c1.21371-.59881,.12439-2.39558-1.0796-1.80156h0Z" fill="#e6e6e6"/></g><g transform="matrix(0.3961375653743744, 0, 0, 0.3961375653743744, 794.3380559756292, 519.8668707042884)"><path d="M168.22061,274.57411c9.43976-4.09239,17.3822-11.22704,22.53727-20.12548,5.02178-8.66836,7.03756-18.89967,5.93376-28.84012-.61617-5.54902-2.18843-10.98584-4.68567-15.98067-.59779-1.19567-2.57988-.49747-1.97575,.71087,4.25018,8.50098,5.77075,18.24526,4.324,27.63995-1.48291,9.62947-6.15971,18.50045-13.08971,25.32805-3.96302,3.90447-8.65068,7.07889-13.75476,9.29165-1.2355,.53562-.53189,2.51452,.71087,1.97575h0Z" fill="#e6e6e6"/><path d="M200.73725,209.17022l-12.67775-12.80954c-.46112-.46592-1.39994-.25463-1.63361,.34984l-7.15755,18.51576c-.48443,1.25316,1.41151,2.15738,1.89973,.89441l7.15755-18.51576-1.63361,.34984,12.67775,12.80954c.95203,.96193,2.31189-.63988,1.36748-1.5941h0Z" fill="#e6e6e6"/></g><path d="M520.67034,80.66343c.15955-3.01079-1.4453,15.53787,1.31138,15.23412,12.55169-1.40069,31.01483,2.05463,40.31412,3.50939,.37341-.13253,.74683-.265,1.10633-.40601,.89088-.30975,1.74904-.65887,2.59074-1.0276,18.97398-8.29975,19.61651-40.51612,19.55269-40.79451-.314-1.36967-12.22554-38.23542-17.53172-37.60503-1.37578,.16302-2.75884,.39803-4.14654,.71616l-12.85055,2.94599c-2.86305,.04684-5.66273,.26673-8.33485,.68007l-.02259,.00518c-26.32216,3.95971-43.10572,24.40423-36.80041,43.15404,.01639,.01964,.04409,.03675,.06042,.05647,.7418,.69728,1.40563,1.36558,2.0054,2.01337,.57827,.60586,1.08119,1.1938,1.53128,1.75872,3.4813,4.35918-1.16653,11.91412,3.11643,12.14352,5.69633,.30511-5.70066,54.58394,18.98276,50.20938-20.14135-6.98062-11.32504-44.28768-10.8849-52.59327Z" fill="#2f2e41" transform="matrix(0.3961375653743744, 0, 0, 0.3961375653743744, 794.3380559756292, 519.8668707042884)"/><path d="M 574.770967 74.46151 A 31.21451 31.21451 0 0 1 543.556458 105.67602 A 31.21451 31.21451 0 0 1 512.341948 74.46151 A 31.21451 31.21451 0 0 1 543.556458 43.247 A 31.21451 31.21451 0 0 1 574.770967 74.46151 Z" fill="#ffb6b6" transform="matrix(0.3961375653743744, 0, 0, 0.3961375653743744, 794.3380559756292, 519.8668707042884)"/><path d="M593.92824,63.44405c-.12868,2.9069-9.05764,28.76647-21.19635,28.76647-2.27104,0-5.29909-11.35519-7.57012-21.95336-.19195-.89577,3.49739,67.28326,2.6117,67.59362,.41635-10.06068-13.16446-43.46006-12.5967-50.25806,2.02879-24.39849-5.30865-21.73472-17.33001-26.26922l.00199,.16745c-2.64954-2.51329-4.45124-5.91226-5.00384-9.52323-.66617,3.5277-.65102,7.16135,.00758,10.66632-2.1802,4.84485-6.25293,7.2143-11.72611,7.75938-.77974-2.92206-2.34677-6.04852-3.78506-6.6617,.28009,2.21046,.28767,4.5345-.15141,6.76011-2.32403-.09084-4.61776,5.60949-7.29003,5.06441-.58287-.10595,.12868,9.6216-.46177,9.48534-.56018-.12868-1.11283-.25736-1.68817-.40877-.1211-.5375-3.81533-1.71843-3.90616-2.26346-2.7328-15.6399-2.96748-43.11186,12.61181-47.33601,.40882-.1211,.82516-.22709,1.24151-.31793l23.3917-5.61702c-.27251-1.21125-.12868-2.42245,.37093-3.47471,.28009-.63586,.69644-1.2112,1.20367-1.68812,.00753-.00758,.00753-.01516,.01511-.02273,.69644-.65102,1.55944-1.13552,2.55113-1.36261,.15899-.03784,.33309-.06811,.49965-.09842,2.4754-.33309,4.93569-.50719,7.38087-.5526,1.19605-.02273,2.39214-.00758,3.58065,.03784,.09842,0,.18168,0,.27251,.00758,3.91379,.16652,7.75938,.68128,11.49902,1.54429,6.4876,2.13478,12.24845,6.09394,16.54828,11.37792,3.31572,4.06515,5.7609,8.91,7.00236,14.34539,.52234,6.70712,2.41487,2.80849,1.91526,14.23182Z" fill="#2f2e41" transform="matrix(0.3961375653743744, 0, 0, 0.3961375653743744, 794.3380559756292, 519.8668707042884)"/><path d="M595.50127,40.18038c-.82258-1.33138-2.00485-2.67348-3.3866-3.79278,.47567-.23661,.93619-.49587,1.36599-.79555,3.81496-2.65999,4.90201-8.48016-1.98064-11.61033-3.18159-1.44694-5.18002-5.31087-8.14112-7.96281,0,0-9.5686-8.13848-9.29904-7.52614-2.6787-2.55034-3.48265-5.7092-5.53057-8.49278-.62519,3.36262,.17724,7.74353,1.91443,10.86463-1.69903-.09481-3.69986-.51823-4.62533-1.17299-7.16121-5.06654-12.456-3.77314-18.76193,1.69792-4.11339,3.56883-6.61221,6.94604-4.99839,11.51242,.88726,2.51065,2.71206,4.18487,5.63347,5.27714,3.09611,1.1576,9.23431,2.92146,12.46917,1.92936l18.31139,7.26351c1.41958,.31544,3.09685,.54184,4.85428,.60167,3.21439,.94848,6.77707,3.12623,8.90127,5.3008,2.6355,2.69806,3.27372,5.93855,5.20908,8.85525,.87312-3.69113,.05757-8.72348-1.93545-11.94933Z" fill="#2f2e41" transform="matrix(0.3961375653743744, 0, 0, 0.3961375653743744, 794.3380559756292, 519.8668707042884)"/></svg>